M48
; DRILL file {KiCad 9.0.2} date 2026-08-10T20:04:11-0400
; FORMAT={-:-/ absolute / metric / decimal}
; #@! TF.CreationDate,2026-08-10T20:04:11-04:00
; #@! TF.GenerationSoftware,Kicad,Pcbnew,9.0.2
; #@! TF.FileFunction,Plated,1,4,PTH
FMAT,2
METRIC
; #@! TA.AperFunction,Plated,PTH,ViaDrill
T1C0.300
; #@! TA.AperFunction,Plated,PTH,ComponentDrill
T2C0.700
; #@! TA.AperFunction,Plated,PTH,ComponentDrill
T3C0.800
; #@! TA.AperFunction,Plated,PTH,ComponentDrill
T4C0.900
; #@! TA.AperFunction,Plated,PTH,ComponentDrill
T5C1.000
; #@! TA.AperFunction,Plated,PTH,ComponentDrill
T6C1.100
%
G90
G05
T1
X106.8Y-61.9
X109.31Y-59.4
X141.0Y-69.5
X141.75Y-71.0
T2
X143.88Y-45.08
X149.5Y-65.27
X149.5Y-72.89
X149.5Y-78.27
X149.5Y-85.89
X150.0Y-53.58
X150.0Y-61.2
X151.5Y-45.08
T3
X93.42Y-74.0
X95.96Y-74.0
X98.5Y-74.0
X101.04Y-74.0
X101.69Y-42.88
X103.58Y-74.0
X104.23Y-42.88
X106.77Y-42.88
X109.31Y-42.88
X144.5Y-53.58
X144.5Y-58.58
X144.5Y-65.08
X144.5Y-70.08
X144.5Y-78.08
X144.5Y-83.08
T4
X156.36Y-46.1
X158.9Y-46.1
T5
X122.87Y-48.07
X122.87Y-50.61
X122.87Y-53.15
X122.87Y-55.69
X122.87Y-58.23
X122.87Y-60.77
X122.87Y-63.31
X122.87Y-65.85
X122.87Y-68.39
X122.87Y-70.93
X122.87Y-73.47
X122.87Y-76.01
X122.87Y-78.55
X122.87Y-81.09
X122.87Y-83.63
X138.11Y-48.07
X138.11Y-50.61
X138.11Y-53.15
X138.11Y-55.69
X138.11Y-58.23
X138.11Y-60.77
X138.11Y-63.31
X138.11Y-65.85
X138.11Y-68.39
X138.11Y-70.93
X138.11Y-73.47
X138.11Y-76.01
X138.11Y-78.55
X138.11Y-81.09
X138.11Y-83.63
T6
X155.5Y-54.08
X155.5Y-58.58
X155.5Y-65.58
X155.5Y-70.08
X155.5Y-78.58
X155.5Y-83.08
X162.0Y-54.08
X162.0Y-58.58
X162.0Y-65.58
X162.0Y-70.08
X162.0Y-78.58
X162.0Y-83.08
M30
