G04 #@! TF.GenerationSoftware,KiCad,Pcbnew,9.0.2*
G04 #@! TF.CreationDate,2026-08-10T20:06:22-04:00*
G04 #@! TF.ProjectId,PCBtutorial,50434274-7574-46f7-9269-616c2e6b6963,rev?*
G04 #@! TF.SameCoordinates,Original*
G04 #@! TF.FileFunction,Legend,Top*
G04 #@! TF.FilePolarity,Positive*
%FSLAX46Y46*%
G04 Gerber Fmt 4.6, Leading zero omitted, Abs format (unit mm)*
G04 Created by KiCad (PCBNEW 9.0.2) date 2026-08-10 20:06:22*
%MOMM*%
%LPD*%
G01*
G04 APERTURE LIST*
%ADD10C,0.152400*%
%ADD11C,0.203200*%
%ADD12C,0.150000*%
%ADD13C,0.100000*%
%ADD14C,0.000000*%
%ADD15C,0.120000*%
G04 APERTURE END LIST*
D10*
X101826015Y-50479803D02*
X101826015Y-51060375D01*
X101826015Y-51060375D02*
X101787310Y-51176489D01*
X101787310Y-51176489D02*
X101709901Y-51253899D01*
X101709901Y-51253899D02*
X101593786Y-51292603D01*
X101593786Y-51292603D02*
X101516377Y-51292603D01*
X102600110Y-51292603D02*
X102213062Y-51292603D01*
X102213062Y-51292603D02*
X102213062Y-50479803D01*
X103335500Y-51215194D02*
X103296796Y-51253899D01*
X103296796Y-51253899D02*
X103180681Y-51292603D01*
X103180681Y-51292603D02*
X103103272Y-51292603D01*
X103103272Y-51292603D02*
X102987158Y-51253899D01*
X102987158Y-51253899D02*
X102909748Y-51176489D01*
X102909748Y-51176489D02*
X102871043Y-51099079D01*
X102871043Y-51099079D02*
X102832339Y-50944260D01*
X102832339Y-50944260D02*
X102832339Y-50828146D01*
X102832339Y-50828146D02*
X102871043Y-50673327D01*
X102871043Y-50673327D02*
X102909748Y-50595918D01*
X102909748Y-50595918D02*
X102987158Y-50518508D01*
X102987158Y-50518508D02*
X103103272Y-50479803D01*
X103103272Y-50479803D02*
X103180681Y-50479803D01*
X103180681Y-50479803D02*
X103296796Y-50518508D01*
X103296796Y-50518508D02*
X103335500Y-50557213D01*
X103916072Y-50479803D02*
X103916072Y-51060375D01*
X103916072Y-51060375D02*
X103877367Y-51176489D01*
X103877367Y-51176489D02*
X103799958Y-51253899D01*
X103799958Y-51253899D02*
X103683843Y-51292603D01*
X103683843Y-51292603D02*
X103606434Y-51292603D01*
X104690167Y-51292603D02*
X104303119Y-51292603D01*
X104303119Y-51292603D02*
X104303119Y-50479803D01*
X105425557Y-51215194D02*
X105386853Y-51253899D01*
X105386853Y-51253899D02*
X105270738Y-51292603D01*
X105270738Y-51292603D02*
X105193329Y-51292603D01*
X105193329Y-51292603D02*
X105077215Y-51253899D01*
X105077215Y-51253899D02*
X104999805Y-51176489D01*
X104999805Y-51176489D02*
X104961100Y-51099079D01*
X104961100Y-51099079D02*
X104922396Y-50944260D01*
X104922396Y-50944260D02*
X104922396Y-50828146D01*
X104922396Y-50828146D02*
X104961100Y-50673327D01*
X104961100Y-50673327D02*
X104999805Y-50595918D01*
X104999805Y-50595918D02*
X105077215Y-50518508D01*
X105077215Y-50518508D02*
X105193329Y-50479803D01*
X105193329Y-50479803D02*
X105270738Y-50479803D01*
X105270738Y-50479803D02*
X105386853Y-50518508D01*
X105386853Y-50518508D02*
X105425557Y-50557213D01*
X106006129Y-50479803D02*
X106006129Y-51060375D01*
X106006129Y-51060375D02*
X105967424Y-51176489D01*
X105967424Y-51176489D02*
X105890015Y-51253899D01*
X105890015Y-51253899D02*
X105773900Y-51292603D01*
X105773900Y-51292603D02*
X105696491Y-51292603D01*
X106780224Y-51292603D02*
X106393176Y-51292603D01*
X106393176Y-51292603D02*
X106393176Y-50479803D01*
X107515614Y-51215194D02*
X107476910Y-51253899D01*
X107476910Y-51253899D02*
X107360795Y-51292603D01*
X107360795Y-51292603D02*
X107283386Y-51292603D01*
X107283386Y-51292603D02*
X107167272Y-51253899D01*
X107167272Y-51253899D02*
X107089862Y-51176489D01*
X107089862Y-51176489D02*
X107051157Y-51099079D01*
X107051157Y-51099079D02*
X107012453Y-50944260D01*
X107012453Y-50944260D02*
X107012453Y-50828146D01*
X107012453Y-50828146D02*
X107051157Y-50673327D01*
X107051157Y-50673327D02*
X107089862Y-50595918D01*
X107089862Y-50595918D02*
X107167272Y-50518508D01*
X107167272Y-50518508D02*
X107283386Y-50479803D01*
X107283386Y-50479803D02*
X107360795Y-50479803D01*
X107360795Y-50479803D02*
X107476910Y-50518508D01*
X107476910Y-50518508D02*
X107515614Y-50557213D01*
X108096186Y-50479803D02*
X108096186Y-51060375D01*
X108096186Y-51060375D02*
X108057481Y-51176489D01*
X108057481Y-51176489D02*
X107980072Y-51253899D01*
X107980072Y-51253899D02*
X107863957Y-51292603D01*
X107863957Y-51292603D02*
X107786548Y-51292603D01*
X108870281Y-51292603D02*
X108483233Y-51292603D01*
X108483233Y-51292603D02*
X108483233Y-50479803D01*
X109605671Y-51215194D02*
X109566967Y-51253899D01*
X109566967Y-51253899D02*
X109450852Y-51292603D01*
X109450852Y-51292603D02*
X109373443Y-51292603D01*
X109373443Y-51292603D02*
X109257329Y-51253899D01*
X109257329Y-51253899D02*
X109179919Y-51176489D01*
X109179919Y-51176489D02*
X109141214Y-51099079D01*
X109141214Y-51099079D02*
X109102510Y-50944260D01*
X109102510Y-50944260D02*
X109102510Y-50828146D01*
X109102510Y-50828146D02*
X109141214Y-50673327D01*
X109141214Y-50673327D02*
X109179919Y-50595918D01*
X109179919Y-50595918D02*
X109257329Y-50518508D01*
X109257329Y-50518508D02*
X109373443Y-50479803D01*
X109373443Y-50479803D02*
X109450852Y-50479803D01*
X109450852Y-50479803D02*
X109566967Y-50518508D01*
X109566967Y-50518508D02*
X109605671Y-50557213D01*
X107855082Y-84257213D02*
X107893786Y-84218508D01*
X107893786Y-84218508D02*
X107971196Y-84179803D01*
X107971196Y-84179803D02*
X108164720Y-84179803D01*
X108164720Y-84179803D02*
X108242129Y-84218508D01*
X108242129Y-84218508D02*
X108280834Y-84257213D01*
X108280834Y-84257213D02*
X108319539Y-84334622D01*
X108319539Y-84334622D02*
X108319539Y-84412032D01*
X108319539Y-84412032D02*
X108280834Y-84528146D01*
X108280834Y-84528146D02*
X107816377Y-84992603D01*
X107816377Y-84992603D02*
X108319539Y-84992603D01*
X108822700Y-84179803D02*
X108900110Y-84179803D01*
X108900110Y-84179803D02*
X108977519Y-84218508D01*
X108977519Y-84218508D02*
X109016224Y-84257213D01*
X109016224Y-84257213D02*
X109054929Y-84334622D01*
X109054929Y-84334622D02*
X109093634Y-84489441D01*
X109093634Y-84489441D02*
X109093634Y-84682965D01*
X109093634Y-84682965D02*
X109054929Y-84837784D01*
X109054929Y-84837784D02*
X109016224Y-84915194D01*
X109016224Y-84915194D02*
X108977519Y-84953899D01*
X108977519Y-84953899D02*
X108900110Y-84992603D01*
X108900110Y-84992603D02*
X108822700Y-84992603D01*
X108822700Y-84992603D02*
X108745291Y-84953899D01*
X108745291Y-84953899D02*
X108706586Y-84915194D01*
X108706586Y-84915194D02*
X108667881Y-84837784D01*
X108667881Y-84837784D02*
X108629177Y-84682965D01*
X108629177Y-84682965D02*
X108629177Y-84489441D01*
X108629177Y-84489441D02*
X108667881Y-84334622D01*
X108667881Y-84334622D02*
X108706586Y-84257213D01*
X108706586Y-84257213D02*
X108745291Y-84218508D01*
X108745291Y-84218508D02*
X108822700Y-84179803D01*
X109403272Y-84257213D02*
X109441976Y-84218508D01*
X109441976Y-84218508D02*
X109519386Y-84179803D01*
X109519386Y-84179803D02*
X109712910Y-84179803D01*
X109712910Y-84179803D02*
X109790319Y-84218508D01*
X109790319Y-84218508D02*
X109829024Y-84257213D01*
X109829024Y-84257213D02*
X109867729Y-84334622D01*
X109867729Y-84334622D02*
X109867729Y-84412032D01*
X109867729Y-84412032D02*
X109829024Y-84528146D01*
X109829024Y-84528146D02*
X109364567Y-84992603D01*
X109364567Y-84992603D02*
X109867729Y-84992603D01*
X110564414Y-84179803D02*
X110409595Y-84179803D01*
X110409595Y-84179803D02*
X110332186Y-84218508D01*
X110332186Y-84218508D02*
X110293481Y-84257213D01*
X110293481Y-84257213D02*
X110216071Y-84373327D01*
X110216071Y-84373327D02*
X110177367Y-84528146D01*
X110177367Y-84528146D02*
X110177367Y-84837784D01*
X110177367Y-84837784D02*
X110216071Y-84915194D01*
X110216071Y-84915194D02*
X110254776Y-84953899D01*
X110254776Y-84953899D02*
X110332186Y-84992603D01*
X110332186Y-84992603D02*
X110487005Y-84992603D01*
X110487005Y-84992603D02*
X110564414Y-84953899D01*
X110564414Y-84953899D02*
X110603119Y-84915194D01*
X110603119Y-84915194D02*
X110641824Y-84837784D01*
X110641824Y-84837784D02*
X110641824Y-84644260D01*
X110641824Y-84644260D02*
X110603119Y-84566851D01*
X110603119Y-84566851D02*
X110564414Y-84528146D01*
X110564414Y-84528146D02*
X110487005Y-84489441D01*
X110487005Y-84489441D02*
X110332186Y-84489441D01*
X110332186Y-84489441D02*
X110254776Y-84528146D01*
X110254776Y-84528146D02*
X110216071Y-84566851D01*
X110216071Y-84566851D02*
X110177367Y-84644260D01*
X111570738Y-84141099D02*
X110874052Y-85186127D01*
X111996490Y-84179803D02*
X112073900Y-84179803D01*
X112073900Y-84179803D02*
X112151309Y-84218508D01*
X112151309Y-84218508D02*
X112190014Y-84257213D01*
X112190014Y-84257213D02*
X112228719Y-84334622D01*
X112228719Y-84334622D02*
X112267424Y-84489441D01*
X112267424Y-84489441D02*
X112267424Y-84682965D01*
X112267424Y-84682965D02*
X112228719Y-84837784D01*
X112228719Y-84837784D02*
X112190014Y-84915194D01*
X112190014Y-84915194D02*
X112151309Y-84953899D01*
X112151309Y-84953899D02*
X112073900Y-84992603D01*
X112073900Y-84992603D02*
X111996490Y-84992603D01*
X111996490Y-84992603D02*
X111919081Y-84953899D01*
X111919081Y-84953899D02*
X111880376Y-84915194D01*
X111880376Y-84915194D02*
X111841671Y-84837784D01*
X111841671Y-84837784D02*
X111802967Y-84682965D01*
X111802967Y-84682965D02*
X111802967Y-84489441D01*
X111802967Y-84489441D02*
X111841671Y-84334622D01*
X111841671Y-84334622D02*
X111880376Y-84257213D01*
X111880376Y-84257213D02*
X111919081Y-84218508D01*
X111919081Y-84218508D02*
X111996490Y-84179803D01*
X112731881Y-84528146D02*
X112654471Y-84489441D01*
X112654471Y-84489441D02*
X112615766Y-84450737D01*
X112615766Y-84450737D02*
X112577062Y-84373327D01*
X112577062Y-84373327D02*
X112577062Y-84334622D01*
X112577062Y-84334622D02*
X112615766Y-84257213D01*
X112615766Y-84257213D02*
X112654471Y-84218508D01*
X112654471Y-84218508D02*
X112731881Y-84179803D01*
X112731881Y-84179803D02*
X112886700Y-84179803D01*
X112886700Y-84179803D02*
X112964109Y-84218508D01*
X112964109Y-84218508D02*
X113002814Y-84257213D01*
X113002814Y-84257213D02*
X113041519Y-84334622D01*
X113041519Y-84334622D02*
X113041519Y-84373327D01*
X113041519Y-84373327D02*
X113002814Y-84450737D01*
X113002814Y-84450737D02*
X112964109Y-84489441D01*
X112964109Y-84489441D02*
X112886700Y-84528146D01*
X112886700Y-84528146D02*
X112731881Y-84528146D01*
X112731881Y-84528146D02*
X112654471Y-84566851D01*
X112654471Y-84566851D02*
X112615766Y-84605556D01*
X112615766Y-84605556D02*
X112577062Y-84682965D01*
X112577062Y-84682965D02*
X112577062Y-84837784D01*
X112577062Y-84837784D02*
X112615766Y-84915194D01*
X112615766Y-84915194D02*
X112654471Y-84953899D01*
X112654471Y-84953899D02*
X112731881Y-84992603D01*
X112731881Y-84992603D02*
X112886700Y-84992603D01*
X112886700Y-84992603D02*
X112964109Y-84953899D01*
X112964109Y-84953899D02*
X113002814Y-84915194D01*
X113002814Y-84915194D02*
X113041519Y-84837784D01*
X113041519Y-84837784D02*
X113041519Y-84682965D01*
X113041519Y-84682965D02*
X113002814Y-84605556D01*
X113002814Y-84605556D02*
X112964109Y-84566851D01*
X112964109Y-84566851D02*
X112886700Y-84528146D01*
X113970433Y-84141099D02*
X113273747Y-85186127D01*
X114667119Y-84992603D02*
X114202662Y-84992603D01*
X114434890Y-84992603D02*
X114434890Y-84179803D01*
X114434890Y-84179803D02*
X114357481Y-84295918D01*
X114357481Y-84295918D02*
X114280071Y-84373327D01*
X114280071Y-84373327D02*
X114202662Y-84412032D01*
X115170280Y-84179803D02*
X115247690Y-84179803D01*
X115247690Y-84179803D02*
X115325099Y-84218508D01*
X115325099Y-84218508D02*
X115363804Y-84257213D01*
X115363804Y-84257213D02*
X115402509Y-84334622D01*
X115402509Y-84334622D02*
X115441214Y-84489441D01*
X115441214Y-84489441D02*
X115441214Y-84682965D01*
X115441214Y-84682965D02*
X115402509Y-84837784D01*
X115402509Y-84837784D02*
X115363804Y-84915194D01*
X115363804Y-84915194D02*
X115325099Y-84953899D01*
X115325099Y-84953899D02*
X115247690Y-84992603D01*
X115247690Y-84992603D02*
X115170280Y-84992603D01*
X115170280Y-84992603D02*
X115092871Y-84953899D01*
X115092871Y-84953899D02*
X115054166Y-84915194D01*
X115054166Y-84915194D02*
X115015461Y-84837784D01*
X115015461Y-84837784D02*
X114976757Y-84682965D01*
X114976757Y-84682965D02*
X114976757Y-84489441D01*
X114976757Y-84489441D02*
X115015461Y-84334622D01*
X115015461Y-84334622D02*
X115054166Y-84257213D01*
X115054166Y-84257213D02*
X115092871Y-84218508D01*
X115092871Y-84218508D02*
X115170280Y-84179803D01*
X115789556Y-84682965D02*
X116408833Y-84682965D01*
X116718471Y-84450737D02*
X116911995Y-84992603D01*
X116911995Y-84992603D02*
X117105518Y-84450737D01*
X117840909Y-84992603D02*
X117376452Y-84992603D01*
X117608680Y-84992603D02*
X117608680Y-84179803D01*
X117608680Y-84179803D02*
X117531271Y-84295918D01*
X117531271Y-84295918D02*
X117453861Y-84373327D01*
X117453861Y-84373327D02*
X117376452Y-84412032D01*
D11*
X107775588Y-83265093D02*
X107775588Y-82249093D01*
X107775588Y-82249093D02*
X108017493Y-82249093D01*
X108017493Y-82249093D02*
X108162636Y-82297474D01*
X108162636Y-82297474D02*
X108259398Y-82394236D01*
X108259398Y-82394236D02*
X108307779Y-82490998D01*
X108307779Y-82490998D02*
X108356160Y-82684522D01*
X108356160Y-82684522D02*
X108356160Y-82829665D01*
X108356160Y-82829665D02*
X108307779Y-83023189D01*
X108307779Y-83023189D02*
X108259398Y-83119951D01*
X108259398Y-83119951D02*
X108162636Y-83216713D01*
X108162636Y-83216713D02*
X108017493Y-83265093D01*
X108017493Y-83265093D02*
X107775588Y-83265093D01*
X108791588Y-83265093D02*
X108791588Y-82249093D01*
X109468922Y-82781284D02*
X109468922Y-83265093D01*
X109130255Y-82249093D02*
X109468922Y-82781284D01*
X109468922Y-82781284D02*
X109807589Y-82249093D01*
X109904351Y-83361855D02*
X110678446Y-83361855D01*
X111259017Y-82732903D02*
X110920350Y-82732903D01*
X110920350Y-83265093D02*
X110920350Y-82249093D01*
X110920350Y-82249093D02*
X111404160Y-82249093D01*
X111791207Y-83265093D02*
X111791207Y-82587760D01*
X111791207Y-82249093D02*
X111742826Y-82297474D01*
X111742826Y-82297474D02*
X111791207Y-82345855D01*
X111791207Y-82345855D02*
X111839588Y-82297474D01*
X111839588Y-82297474D02*
X111791207Y-82249093D01*
X111791207Y-82249093D02*
X111791207Y-82345855D01*
X112275017Y-83265093D02*
X112275017Y-82587760D01*
X112275017Y-82781284D02*
X112323398Y-82684522D01*
X112323398Y-82684522D02*
X112371779Y-82636141D01*
X112371779Y-82636141D02*
X112468541Y-82587760D01*
X112468541Y-82587760D02*
X112565303Y-82587760D01*
X112855588Y-83216713D02*
X112952350Y-83265093D01*
X112952350Y-83265093D02*
X113145874Y-83265093D01*
X113145874Y-83265093D02*
X113242636Y-83216713D01*
X113242636Y-83216713D02*
X113291017Y-83119951D01*
X113291017Y-83119951D02*
X113291017Y-83071570D01*
X113291017Y-83071570D02*
X113242636Y-82974808D01*
X113242636Y-82974808D02*
X113145874Y-82926427D01*
X113145874Y-82926427D02*
X113000731Y-82926427D01*
X113000731Y-82926427D02*
X112903969Y-82878046D01*
X112903969Y-82878046D02*
X112855588Y-82781284D01*
X112855588Y-82781284D02*
X112855588Y-82732903D01*
X112855588Y-82732903D02*
X112903969Y-82636141D01*
X112903969Y-82636141D02*
X113000731Y-82587760D01*
X113000731Y-82587760D02*
X113145874Y-82587760D01*
X113145874Y-82587760D02*
X113242636Y-82636141D01*
X113581302Y-82587760D02*
X113968350Y-82587760D01*
X113726445Y-82249093D02*
X113726445Y-83119951D01*
X113726445Y-83119951D02*
X113774826Y-83216713D01*
X113774826Y-83216713D02*
X113871588Y-83265093D01*
X113871588Y-83265093D02*
X113968350Y-83265093D01*
X114065112Y-83361855D02*
X114839207Y-83361855D01*
X114935968Y-82249093D02*
X115516540Y-82249093D01*
X115226254Y-83265093D02*
X115226254Y-82249093D01*
X116242254Y-83216713D02*
X116145492Y-83265093D01*
X116145492Y-83265093D02*
X115951968Y-83265093D01*
X115951968Y-83265093D02*
X115855206Y-83216713D01*
X115855206Y-83216713D02*
X115806825Y-83119951D01*
X115806825Y-83119951D02*
X115806825Y-82732903D01*
X115806825Y-82732903D02*
X115855206Y-82636141D01*
X115855206Y-82636141D02*
X115951968Y-82587760D01*
X115951968Y-82587760D02*
X116145492Y-82587760D01*
X116145492Y-82587760D02*
X116242254Y-82636141D01*
X116242254Y-82636141D02*
X116290635Y-82732903D01*
X116290635Y-82732903D02*
X116290635Y-82829665D01*
X116290635Y-82829665D02*
X115806825Y-82926427D01*
X116677682Y-83216713D02*
X116774444Y-83265093D01*
X116774444Y-83265093D02*
X116967968Y-83265093D01*
X116967968Y-83265093D02*
X117064730Y-83216713D01*
X117064730Y-83216713D02*
X117113111Y-83119951D01*
X117113111Y-83119951D02*
X117113111Y-83071570D01*
X117113111Y-83071570D02*
X117064730Y-82974808D01*
X117064730Y-82974808D02*
X116967968Y-82926427D01*
X116967968Y-82926427D02*
X116822825Y-82926427D01*
X116822825Y-82926427D02*
X116726063Y-82878046D01*
X116726063Y-82878046D02*
X116677682Y-82781284D01*
X116677682Y-82781284D02*
X116677682Y-82732903D01*
X116677682Y-82732903D02*
X116726063Y-82636141D01*
X116726063Y-82636141D02*
X116822825Y-82587760D01*
X116822825Y-82587760D02*
X116967968Y-82587760D01*
X116967968Y-82587760D02*
X117064730Y-82636141D01*
X117403396Y-82587760D02*
X117790444Y-82587760D01*
X117548539Y-82249093D02*
X117548539Y-83119951D01*
X117548539Y-83119951D02*
X117596920Y-83216713D01*
X117596920Y-83216713D02*
X117693682Y-83265093D01*
X117693682Y-83265093D02*
X117790444Y-83265093D01*
X118516158Y-83216713D02*
X118419396Y-83265093D01*
X118419396Y-83265093D02*
X118225872Y-83265093D01*
X118225872Y-83265093D02*
X118129110Y-83216713D01*
X118129110Y-83216713D02*
X118080729Y-83119951D01*
X118080729Y-83119951D02*
X118080729Y-82732903D01*
X118080729Y-82732903D02*
X118129110Y-82636141D01*
X118129110Y-82636141D02*
X118225872Y-82587760D01*
X118225872Y-82587760D02*
X118419396Y-82587760D01*
X118419396Y-82587760D02*
X118516158Y-82636141D01*
X118516158Y-82636141D02*
X118564539Y-82732903D01*
X118564539Y-82732903D02*
X118564539Y-82829665D01*
X118564539Y-82829665D02*
X118080729Y-82926427D01*
X118999967Y-83265093D02*
X118999967Y-82587760D01*
X118999967Y-82781284D02*
X119048348Y-82684522D01*
X119048348Y-82684522D02*
X119096729Y-82636141D01*
X119096729Y-82636141D02*
X119193491Y-82587760D01*
X119193491Y-82587760D02*
X119290253Y-82587760D01*
D10*
X144792603Y-81580460D02*
X144792603Y-82044917D01*
X144792603Y-81812689D02*
X143979803Y-81812689D01*
X143979803Y-81812689D02*
X144095918Y-81890098D01*
X144095918Y-81890098D02*
X144173327Y-81967508D01*
X144173327Y-81967508D02*
X144212032Y-82044917D01*
X143979803Y-81077299D02*
X143979803Y-80999889D01*
X143979803Y-80999889D02*
X144018508Y-80922480D01*
X144018508Y-80922480D02*
X144057213Y-80883775D01*
X144057213Y-80883775D02*
X144134622Y-80845070D01*
X144134622Y-80845070D02*
X144289441Y-80806365D01*
X144289441Y-80806365D02*
X144482965Y-80806365D01*
X144482965Y-80806365D02*
X144637784Y-80845070D01*
X144637784Y-80845070D02*
X144715194Y-80883775D01*
X144715194Y-80883775D02*
X144753899Y-80922480D01*
X144753899Y-80922480D02*
X144792603Y-80999889D01*
X144792603Y-80999889D02*
X144792603Y-81077299D01*
X144792603Y-81077299D02*
X144753899Y-81154708D01*
X144753899Y-81154708D02*
X144715194Y-81193413D01*
X144715194Y-81193413D02*
X144637784Y-81232118D01*
X144637784Y-81232118D02*
X144482965Y-81270822D01*
X144482965Y-81270822D02*
X144289441Y-81270822D01*
X144289441Y-81270822D02*
X144134622Y-81232118D01*
X144134622Y-81232118D02*
X144057213Y-81193413D01*
X144057213Y-81193413D02*
X144018508Y-81154708D01*
X144018508Y-81154708D02*
X143979803Y-81077299D01*
X143979803Y-80303204D02*
X143979803Y-80225794D01*
X143979803Y-80225794D02*
X144018508Y-80148385D01*
X144018508Y-80148385D02*
X144057213Y-80109680D01*
X144057213Y-80109680D02*
X144134622Y-80070975D01*
X144134622Y-80070975D02*
X144289441Y-80032270D01*
X144289441Y-80032270D02*
X144482965Y-80032270D01*
X144482965Y-80032270D02*
X144637784Y-80070975D01*
X144637784Y-80070975D02*
X144715194Y-80109680D01*
X144715194Y-80109680D02*
X144753899Y-80148385D01*
X144753899Y-80148385D02*
X144792603Y-80225794D01*
X144792603Y-80225794D02*
X144792603Y-80303204D01*
X144792603Y-80303204D02*
X144753899Y-80380613D01*
X144753899Y-80380613D02*
X144715194Y-80419318D01*
X144715194Y-80419318D02*
X144637784Y-80458023D01*
X144637784Y-80458023D02*
X144482965Y-80496727D01*
X144482965Y-80496727D02*
X144289441Y-80496727D01*
X144289441Y-80496727D02*
X144134622Y-80458023D01*
X144134622Y-80458023D02*
X144057213Y-80419318D01*
X144057213Y-80419318D02*
X144018508Y-80380613D01*
X144018508Y-80380613D02*
X143979803Y-80303204D01*
X144250737Y-79683928D02*
X144792603Y-79683928D01*
X144328146Y-79683928D02*
X144289441Y-79645223D01*
X144289441Y-79645223D02*
X144250737Y-79567813D01*
X144250737Y-79567813D02*
X144250737Y-79451699D01*
X144250737Y-79451699D02*
X144289441Y-79374290D01*
X144289441Y-79374290D02*
X144366851Y-79335585D01*
X144366851Y-79335585D02*
X144792603Y-79335585D01*
X144792603Y-56880460D02*
X144792603Y-57344917D01*
X144792603Y-57112689D02*
X143979803Y-57112689D01*
X143979803Y-57112689D02*
X144095918Y-57190098D01*
X144095918Y-57190098D02*
X144173327Y-57267508D01*
X144173327Y-57267508D02*
X144212032Y-57344917D01*
X143979803Y-56377299D02*
X143979803Y-56299889D01*
X143979803Y-56299889D02*
X144018508Y-56222480D01*
X144018508Y-56222480D02*
X144057213Y-56183775D01*
X144057213Y-56183775D02*
X144134622Y-56145070D01*
X144134622Y-56145070D02*
X144289441Y-56106365D01*
X144289441Y-56106365D02*
X144482965Y-56106365D01*
X144482965Y-56106365D02*
X144637784Y-56145070D01*
X144637784Y-56145070D02*
X144715194Y-56183775D01*
X144715194Y-56183775D02*
X144753899Y-56222480D01*
X144753899Y-56222480D02*
X144792603Y-56299889D01*
X144792603Y-56299889D02*
X144792603Y-56377299D01*
X144792603Y-56377299D02*
X144753899Y-56454708D01*
X144753899Y-56454708D02*
X144715194Y-56493413D01*
X144715194Y-56493413D02*
X144637784Y-56532118D01*
X144637784Y-56532118D02*
X144482965Y-56570822D01*
X144482965Y-56570822D02*
X144289441Y-56570822D01*
X144289441Y-56570822D02*
X144134622Y-56532118D01*
X144134622Y-56532118D02*
X144057213Y-56493413D01*
X144057213Y-56493413D02*
X144018508Y-56454708D01*
X144018508Y-56454708D02*
X143979803Y-56377299D01*
X143979803Y-55603204D02*
X143979803Y-55525794D01*
X143979803Y-55525794D02*
X144018508Y-55448385D01*
X144018508Y-55448385D02*
X144057213Y-55409680D01*
X144057213Y-55409680D02*
X144134622Y-55370975D01*
X144134622Y-55370975D02*
X144289441Y-55332270D01*
X144289441Y-55332270D02*
X144482965Y-55332270D01*
X144482965Y-55332270D02*
X144637784Y-55370975D01*
X144637784Y-55370975D02*
X144715194Y-55409680D01*
X144715194Y-55409680D02*
X144753899Y-55448385D01*
X144753899Y-55448385D02*
X144792603Y-55525794D01*
X144792603Y-55525794D02*
X144792603Y-55603204D01*
X144792603Y-55603204D02*
X144753899Y-55680613D01*
X144753899Y-55680613D02*
X144715194Y-55719318D01*
X144715194Y-55719318D02*
X144637784Y-55758023D01*
X144637784Y-55758023D02*
X144482965Y-55796727D01*
X144482965Y-55796727D02*
X144289441Y-55796727D01*
X144289441Y-55796727D02*
X144134622Y-55758023D01*
X144134622Y-55758023D02*
X144057213Y-55719318D01*
X144057213Y-55719318D02*
X144018508Y-55680613D01*
X144018508Y-55680613D02*
X143979803Y-55603204D01*
X144250737Y-54983928D02*
X144792603Y-54983928D01*
X144328146Y-54983928D02*
X144289441Y-54945223D01*
X144289441Y-54945223D02*
X144250737Y-54867813D01*
X144250737Y-54867813D02*
X144250737Y-54751699D01*
X144250737Y-54751699D02*
X144289441Y-54674290D01*
X144289441Y-54674290D02*
X144366851Y-54635585D01*
X144366851Y-54635585D02*
X144792603Y-54635585D01*
X144892603Y-68380460D02*
X144892603Y-68844917D01*
X144892603Y-68612689D02*
X144079803Y-68612689D01*
X144079803Y-68612689D02*
X144195918Y-68690098D01*
X144195918Y-68690098D02*
X144273327Y-68767508D01*
X144273327Y-68767508D02*
X144312032Y-68844917D01*
X144079803Y-67877299D02*
X144079803Y-67799889D01*
X144079803Y-67799889D02*
X144118508Y-67722480D01*
X144118508Y-67722480D02*
X144157213Y-67683775D01*
X144157213Y-67683775D02*
X144234622Y-67645070D01*
X144234622Y-67645070D02*
X144389441Y-67606365D01*
X144389441Y-67606365D02*
X144582965Y-67606365D01*
X144582965Y-67606365D02*
X144737784Y-67645070D01*
X144737784Y-67645070D02*
X144815194Y-67683775D01*
X144815194Y-67683775D02*
X144853899Y-67722480D01*
X144853899Y-67722480D02*
X144892603Y-67799889D01*
X144892603Y-67799889D02*
X144892603Y-67877299D01*
X144892603Y-67877299D02*
X144853899Y-67954708D01*
X144853899Y-67954708D02*
X144815194Y-67993413D01*
X144815194Y-67993413D02*
X144737784Y-68032118D01*
X144737784Y-68032118D02*
X144582965Y-68070822D01*
X144582965Y-68070822D02*
X144389441Y-68070822D01*
X144389441Y-68070822D02*
X144234622Y-68032118D01*
X144234622Y-68032118D02*
X144157213Y-67993413D01*
X144157213Y-67993413D02*
X144118508Y-67954708D01*
X144118508Y-67954708D02*
X144079803Y-67877299D01*
X144079803Y-67103204D02*
X144079803Y-67025794D01*
X144079803Y-67025794D02*
X144118508Y-66948385D01*
X144118508Y-66948385D02*
X144157213Y-66909680D01*
X144157213Y-66909680D02*
X144234622Y-66870975D01*
X144234622Y-66870975D02*
X144389441Y-66832270D01*
X144389441Y-66832270D02*
X144582965Y-66832270D01*
X144582965Y-66832270D02*
X144737784Y-66870975D01*
X144737784Y-66870975D02*
X144815194Y-66909680D01*
X144815194Y-66909680D02*
X144853899Y-66948385D01*
X144853899Y-66948385D02*
X144892603Y-67025794D01*
X144892603Y-67025794D02*
X144892603Y-67103204D01*
X144892603Y-67103204D02*
X144853899Y-67180613D01*
X144853899Y-67180613D02*
X144815194Y-67219318D01*
X144815194Y-67219318D02*
X144737784Y-67258023D01*
X144737784Y-67258023D02*
X144582965Y-67296727D01*
X144582965Y-67296727D02*
X144389441Y-67296727D01*
X144389441Y-67296727D02*
X144234622Y-67258023D01*
X144234622Y-67258023D02*
X144157213Y-67219318D01*
X144157213Y-67219318D02*
X144118508Y-67180613D01*
X144118508Y-67180613D02*
X144079803Y-67103204D01*
X144350737Y-66483928D02*
X144892603Y-66483928D01*
X144428146Y-66483928D02*
X144389441Y-66445223D01*
X144389441Y-66445223D02*
X144350737Y-66367813D01*
X144350737Y-66367813D02*
X144350737Y-66251699D01*
X144350737Y-66251699D02*
X144389441Y-66174290D01*
X144389441Y-66174290D02*
X144466851Y-66135585D01*
X144466851Y-66135585D02*
X144892603Y-66135585D01*
X149792603Y-82080460D02*
X149792603Y-82544917D01*
X149792603Y-82312689D02*
X148979803Y-82312689D01*
X148979803Y-82312689D02*
X149095918Y-82390098D01*
X149095918Y-82390098D02*
X149173327Y-82467508D01*
X149173327Y-82467508D02*
X149212032Y-82544917D01*
X149792603Y-81732118D02*
X148979803Y-81732118D01*
X149482965Y-81654708D02*
X149792603Y-81422480D01*
X149250737Y-81422480D02*
X149560375Y-81732118D01*
X149892603Y-69080460D02*
X149892603Y-69544917D01*
X149892603Y-69312689D02*
X149079803Y-69312689D01*
X149079803Y-69312689D02*
X149195918Y-69390098D01*
X149195918Y-69390098D02*
X149273327Y-69467508D01*
X149273327Y-69467508D02*
X149312032Y-69544917D01*
X149892603Y-68732118D02*
X149079803Y-68732118D01*
X149582965Y-68654708D02*
X149892603Y-68422480D01*
X149350737Y-68422480D02*
X149660375Y-68732118D01*
X150392603Y-57480460D02*
X150392603Y-57944917D01*
X150392603Y-57712689D02*
X149579803Y-57712689D01*
X149579803Y-57712689D02*
X149695918Y-57790098D01*
X149695918Y-57790098D02*
X149773327Y-57867508D01*
X149773327Y-57867508D02*
X149812032Y-57944917D01*
X150392603Y-57132118D02*
X149579803Y-57132118D01*
X150082965Y-57054708D02*
X150392603Y-56822480D01*
X149850737Y-56822480D02*
X150160375Y-57132118D01*
X147519539Y-45292603D02*
X147055082Y-45292603D01*
X147287310Y-45292603D02*
X147287310Y-44479803D01*
X147287310Y-44479803D02*
X147209901Y-44595918D01*
X147209901Y-44595918D02*
X147132491Y-44673327D01*
X147132491Y-44673327D02*
X147055082Y-44712032D01*
X147867881Y-45292603D02*
X147867881Y-44479803D01*
X148332338Y-45292603D02*
X147983996Y-44828146D01*
X148332338Y-44479803D02*
X147867881Y-44944260D01*
X95993786Y-80692603D02*
X95993786Y-79879803D01*
X95993786Y-79879803D02*
X96264720Y-80460375D01*
X96264720Y-80460375D02*
X96535653Y-79879803D01*
X96535653Y-79879803D02*
X96535653Y-80692603D01*
X96883996Y-80460375D02*
X97271043Y-80460375D01*
X96806586Y-80692603D02*
X97077519Y-79879803D01*
X97077519Y-79879803D02*
X97348453Y-80692603D01*
X97541977Y-79879803D02*
X98083843Y-80692603D01*
X98083843Y-79879803D02*
X97541977Y-80692603D01*
X98316072Y-79879803D02*
X98819234Y-79879803D01*
X98819234Y-79879803D02*
X98548300Y-80189441D01*
X98548300Y-80189441D02*
X98664415Y-80189441D01*
X98664415Y-80189441D02*
X98741824Y-80228146D01*
X98741824Y-80228146D02*
X98780529Y-80266851D01*
X98780529Y-80266851D02*
X98819234Y-80344260D01*
X98819234Y-80344260D02*
X98819234Y-80537784D01*
X98819234Y-80537784D02*
X98780529Y-80615194D01*
X98780529Y-80615194D02*
X98741824Y-80653899D01*
X98741824Y-80653899D02*
X98664415Y-80692603D01*
X98664415Y-80692603D02*
X98432186Y-80692603D01*
X98432186Y-80692603D02*
X98354777Y-80653899D01*
X98354777Y-80653899D02*
X98316072Y-80615194D01*
X99322395Y-79879803D02*
X99399805Y-79879803D01*
X99399805Y-79879803D02*
X99477214Y-79918508D01*
X99477214Y-79918508D02*
X99515919Y-79957213D01*
X99515919Y-79957213D02*
X99554624Y-80034622D01*
X99554624Y-80034622D02*
X99593329Y-80189441D01*
X99593329Y-80189441D02*
X99593329Y-80382965D01*
X99593329Y-80382965D02*
X99554624Y-80537784D01*
X99554624Y-80537784D02*
X99515919Y-80615194D01*
X99515919Y-80615194D02*
X99477214Y-80653899D01*
X99477214Y-80653899D02*
X99399805Y-80692603D01*
X99399805Y-80692603D02*
X99322395Y-80692603D01*
X99322395Y-80692603D02*
X99244986Y-80653899D01*
X99244986Y-80653899D02*
X99206281Y-80615194D01*
X99206281Y-80615194D02*
X99167576Y-80537784D01*
X99167576Y-80537784D02*
X99128872Y-80382965D01*
X99128872Y-80382965D02*
X99128872Y-80189441D01*
X99128872Y-80189441D02*
X99167576Y-80034622D01*
X99167576Y-80034622D02*
X99206281Y-79957213D01*
X99206281Y-79957213D02*
X99244986Y-79918508D01*
X99244986Y-79918508D02*
X99322395Y-79879803D01*
X100367424Y-80692603D02*
X99902967Y-80692603D01*
X100135195Y-80692603D02*
X100135195Y-79879803D01*
X100135195Y-79879803D02*
X100057786Y-79995918D01*
X100057786Y-79995918D02*
X99980376Y-80073327D01*
X99980376Y-80073327D02*
X99902967Y-80112032D01*
X100870585Y-79879803D02*
X100947995Y-79879803D01*
X100947995Y-79879803D02*
X101025404Y-79918508D01*
X101025404Y-79918508D02*
X101064109Y-79957213D01*
X101064109Y-79957213D02*
X101102814Y-80034622D01*
X101102814Y-80034622D02*
X101141519Y-80189441D01*
X101141519Y-80189441D02*
X101141519Y-80382965D01*
X101141519Y-80382965D02*
X101102814Y-80537784D01*
X101102814Y-80537784D02*
X101064109Y-80615194D01*
X101064109Y-80615194D02*
X101025404Y-80653899D01*
X101025404Y-80653899D02*
X100947995Y-80692603D01*
X100947995Y-80692603D02*
X100870585Y-80692603D01*
X100870585Y-80692603D02*
X100793176Y-80653899D01*
X100793176Y-80653899D02*
X100754471Y-80615194D01*
X100754471Y-80615194D02*
X100715766Y-80537784D01*
X100715766Y-80537784D02*
X100677062Y-80382965D01*
X100677062Y-80382965D02*
X100677062Y-80189441D01*
X100677062Y-80189441D02*
X100715766Y-80034622D01*
X100715766Y-80034622D02*
X100754471Y-79957213D01*
X100754471Y-79957213D02*
X100793176Y-79918508D01*
X100793176Y-79918508D02*
X100870585Y-79879803D01*
X101451157Y-79957213D02*
X101489861Y-79918508D01*
X101489861Y-79918508D02*
X101567271Y-79879803D01*
X101567271Y-79879803D02*
X101760795Y-79879803D01*
X101760795Y-79879803D02*
X101838204Y-79918508D01*
X101838204Y-79918508D02*
X101876909Y-79957213D01*
X101876909Y-79957213D02*
X101915614Y-80034622D01*
X101915614Y-80034622D02*
X101915614Y-80112032D01*
X101915614Y-80112032D02*
X101876909Y-80228146D01*
X101876909Y-80228146D02*
X101412452Y-80692603D01*
X101412452Y-80692603D02*
X101915614Y-80692603D01*
X102655082Y-55553899D02*
X102771196Y-55592603D01*
X102771196Y-55592603D02*
X102964720Y-55592603D01*
X102964720Y-55592603D02*
X103042129Y-55553899D01*
X103042129Y-55553899D02*
X103080834Y-55515194D01*
X103080834Y-55515194D02*
X103119539Y-55437784D01*
X103119539Y-55437784D02*
X103119539Y-55360375D01*
X103119539Y-55360375D02*
X103080834Y-55282965D01*
X103080834Y-55282965D02*
X103042129Y-55244260D01*
X103042129Y-55244260D02*
X102964720Y-55205556D01*
X102964720Y-55205556D02*
X102809901Y-55166851D01*
X102809901Y-55166851D02*
X102732491Y-55128146D01*
X102732491Y-55128146D02*
X102693786Y-55089441D01*
X102693786Y-55089441D02*
X102655082Y-55012032D01*
X102655082Y-55012032D02*
X102655082Y-54934622D01*
X102655082Y-54934622D02*
X102693786Y-54857213D01*
X102693786Y-54857213D02*
X102732491Y-54818508D01*
X102732491Y-54818508D02*
X102809901Y-54779803D01*
X102809901Y-54779803D02*
X103003424Y-54779803D01*
X103003424Y-54779803D02*
X103119539Y-54818508D01*
X103429177Y-55553899D02*
X103545291Y-55592603D01*
X103545291Y-55592603D02*
X103738815Y-55592603D01*
X103738815Y-55592603D02*
X103816224Y-55553899D01*
X103816224Y-55553899D02*
X103854929Y-55515194D01*
X103854929Y-55515194D02*
X103893634Y-55437784D01*
X103893634Y-55437784D02*
X103893634Y-55360375D01*
X103893634Y-55360375D02*
X103854929Y-55282965D01*
X103854929Y-55282965D02*
X103816224Y-55244260D01*
X103816224Y-55244260D02*
X103738815Y-55205556D01*
X103738815Y-55205556D02*
X103583996Y-55166851D01*
X103583996Y-55166851D02*
X103506586Y-55128146D01*
X103506586Y-55128146D02*
X103467881Y-55089441D01*
X103467881Y-55089441D02*
X103429177Y-55012032D01*
X103429177Y-55012032D02*
X103429177Y-54934622D01*
X103429177Y-54934622D02*
X103467881Y-54857213D01*
X103467881Y-54857213D02*
X103506586Y-54818508D01*
X103506586Y-54818508D02*
X103583996Y-54779803D01*
X103583996Y-54779803D02*
X103777519Y-54779803D01*
X103777519Y-54779803D02*
X103893634Y-54818508D01*
X104241976Y-55592603D02*
X104241976Y-54779803D01*
X104241976Y-54779803D02*
X104435500Y-54779803D01*
X104435500Y-54779803D02*
X104551614Y-54818508D01*
X104551614Y-54818508D02*
X104629024Y-54895918D01*
X104629024Y-54895918D02*
X104667729Y-54973327D01*
X104667729Y-54973327D02*
X104706433Y-55128146D01*
X104706433Y-55128146D02*
X104706433Y-55244260D01*
X104706433Y-55244260D02*
X104667729Y-55399079D01*
X104667729Y-55399079D02*
X104629024Y-55476489D01*
X104629024Y-55476489D02*
X104551614Y-55553899D01*
X104551614Y-55553899D02*
X104435500Y-55592603D01*
X104435500Y-55592603D02*
X104241976Y-55592603D01*
X105480529Y-55592603D02*
X105016072Y-55592603D01*
X105248300Y-55592603D02*
X105248300Y-54779803D01*
X105248300Y-54779803D02*
X105170891Y-54895918D01*
X105170891Y-54895918D02*
X105093481Y-54973327D01*
X105093481Y-54973327D02*
X105016072Y-55012032D01*
X105751462Y-54779803D02*
X106254624Y-54779803D01*
X106254624Y-54779803D02*
X105983690Y-55089441D01*
X105983690Y-55089441D02*
X106099805Y-55089441D01*
X106099805Y-55089441D02*
X106177214Y-55128146D01*
X106177214Y-55128146D02*
X106215919Y-55166851D01*
X106215919Y-55166851D02*
X106254624Y-55244260D01*
X106254624Y-55244260D02*
X106254624Y-55437784D01*
X106254624Y-55437784D02*
X106215919Y-55515194D01*
X106215919Y-55515194D02*
X106177214Y-55553899D01*
X106177214Y-55553899D02*
X106099805Y-55592603D01*
X106099805Y-55592603D02*
X105867576Y-55592603D01*
X105867576Y-55592603D02*
X105790167Y-55553899D01*
X105790167Y-55553899D02*
X105751462Y-55515194D01*
X106757785Y-54779803D02*
X106835195Y-54779803D01*
X106835195Y-54779803D02*
X106912604Y-54818508D01*
X106912604Y-54818508D02*
X106951309Y-54857213D01*
X106951309Y-54857213D02*
X106990014Y-54934622D01*
X106990014Y-54934622D02*
X107028719Y-55089441D01*
X107028719Y-55089441D02*
X107028719Y-55282965D01*
X107028719Y-55282965D02*
X106990014Y-55437784D01*
X106990014Y-55437784D02*
X106951309Y-55515194D01*
X106951309Y-55515194D02*
X106912604Y-55553899D01*
X106912604Y-55553899D02*
X106835195Y-55592603D01*
X106835195Y-55592603D02*
X106757785Y-55592603D01*
X106757785Y-55592603D02*
X106680376Y-55553899D01*
X106680376Y-55553899D02*
X106641671Y-55515194D01*
X106641671Y-55515194D02*
X106602966Y-55437784D01*
X106602966Y-55437784D02*
X106564262Y-55282965D01*
X106564262Y-55282965D02*
X106564262Y-55089441D01*
X106564262Y-55089441D02*
X106602966Y-54934622D01*
X106602966Y-54934622D02*
X106641671Y-54857213D01*
X106641671Y-54857213D02*
X106680376Y-54818508D01*
X106680376Y-54818508D02*
X106757785Y-54779803D01*
X107725404Y-54779803D02*
X107570585Y-54779803D01*
X107570585Y-54779803D02*
X107493176Y-54818508D01*
X107493176Y-54818508D02*
X107454471Y-54857213D01*
X107454471Y-54857213D02*
X107377061Y-54973327D01*
X107377061Y-54973327D02*
X107338357Y-55128146D01*
X107338357Y-55128146D02*
X107338357Y-55437784D01*
X107338357Y-55437784D02*
X107377061Y-55515194D01*
X107377061Y-55515194D02*
X107415766Y-55553899D01*
X107415766Y-55553899D02*
X107493176Y-55592603D01*
X107493176Y-55592603D02*
X107647995Y-55592603D01*
X107647995Y-55592603D02*
X107725404Y-55553899D01*
X107725404Y-55553899D02*
X107764109Y-55515194D01*
X107764109Y-55515194D02*
X107802814Y-55437784D01*
X107802814Y-55437784D02*
X107802814Y-55244260D01*
X107802814Y-55244260D02*
X107764109Y-55166851D01*
X107764109Y-55166851D02*
X107725404Y-55128146D01*
X107725404Y-55128146D02*
X107647995Y-55089441D01*
X107647995Y-55089441D02*
X107493176Y-55089441D01*
X107493176Y-55089441D02*
X107415766Y-55128146D01*
X107415766Y-55128146D02*
X107377061Y-55166851D01*
X107377061Y-55166851D02*
X107338357Y-55244260D01*
X126855082Y-65560375D02*
X127242129Y-65560375D01*
X126777672Y-65792603D02*
X127048605Y-64979803D01*
X127048605Y-64979803D02*
X127319539Y-65792603D01*
X127590472Y-65792603D02*
X127590472Y-65250737D01*
X127590472Y-65405556D02*
X127629177Y-65328146D01*
X127629177Y-65328146D02*
X127667882Y-65289441D01*
X127667882Y-65289441D02*
X127745291Y-65250737D01*
X127745291Y-65250737D02*
X127822701Y-65250737D01*
X128441977Y-65792603D02*
X128441977Y-64979803D01*
X128441977Y-65753899D02*
X128364568Y-65792603D01*
X128364568Y-65792603D02*
X128209749Y-65792603D01*
X128209749Y-65792603D02*
X128132339Y-65753899D01*
X128132339Y-65753899D02*
X128093634Y-65715194D01*
X128093634Y-65715194D02*
X128054930Y-65637784D01*
X128054930Y-65637784D02*
X128054930Y-65405556D01*
X128054930Y-65405556D02*
X128093634Y-65328146D01*
X128093634Y-65328146D02*
X128132339Y-65289441D01*
X128132339Y-65289441D02*
X128209749Y-65250737D01*
X128209749Y-65250737D02*
X128364568Y-65250737D01*
X128364568Y-65250737D02*
X128441977Y-65289441D01*
X129177367Y-65250737D02*
X129177367Y-65792603D01*
X128829024Y-65250737D02*
X128829024Y-65676489D01*
X128829024Y-65676489D02*
X128867729Y-65753899D01*
X128867729Y-65753899D02*
X128945139Y-65792603D01*
X128945139Y-65792603D02*
X129061253Y-65792603D01*
X129061253Y-65792603D02*
X129138662Y-65753899D01*
X129138662Y-65753899D02*
X129177367Y-65715194D01*
X129564414Y-65792603D02*
X129564414Y-65250737D01*
X129564414Y-64979803D02*
X129525710Y-65018508D01*
X129525710Y-65018508D02*
X129564414Y-65057213D01*
X129564414Y-65057213D02*
X129603119Y-65018508D01*
X129603119Y-65018508D02*
X129564414Y-64979803D01*
X129564414Y-64979803D02*
X129564414Y-65057213D01*
X129951462Y-65250737D02*
X129951462Y-65792603D01*
X129951462Y-65328146D02*
X129990167Y-65289441D01*
X129990167Y-65289441D02*
X130067577Y-65250737D01*
X130067577Y-65250737D02*
X130183691Y-65250737D01*
X130183691Y-65250737D02*
X130261100Y-65289441D01*
X130261100Y-65289441D02*
X130299805Y-65366851D01*
X130299805Y-65366851D02*
X130299805Y-65792603D01*
X130802967Y-65792603D02*
X130725557Y-65753899D01*
X130725557Y-65753899D02*
X130686852Y-65715194D01*
X130686852Y-65715194D02*
X130648148Y-65637784D01*
X130648148Y-65637784D02*
X130648148Y-65405556D01*
X130648148Y-65405556D02*
X130686852Y-65328146D01*
X130686852Y-65328146D02*
X130725557Y-65289441D01*
X130725557Y-65289441D02*
X130802967Y-65250737D01*
X130802967Y-65250737D02*
X130919081Y-65250737D01*
X130919081Y-65250737D02*
X130996490Y-65289441D01*
X130996490Y-65289441D02*
X131035195Y-65328146D01*
X131035195Y-65328146D02*
X131073900Y-65405556D01*
X131073900Y-65405556D02*
X131073900Y-65637784D01*
X131073900Y-65637784D02*
X131035195Y-65715194D01*
X131035195Y-65715194D02*
X130996490Y-65753899D01*
X130996490Y-65753899D02*
X130919081Y-65792603D01*
X130919081Y-65792603D02*
X130802967Y-65792603D01*
X132041518Y-65792603D02*
X132041518Y-64979803D01*
X132041518Y-64979803D02*
X132505975Y-65792603D01*
X132505975Y-65792603D02*
X132505975Y-64979803D01*
X133241366Y-65792603D02*
X133241366Y-65366851D01*
X133241366Y-65366851D02*
X133202661Y-65289441D01*
X133202661Y-65289441D02*
X133125252Y-65250737D01*
X133125252Y-65250737D02*
X132970433Y-65250737D01*
X132970433Y-65250737D02*
X132893023Y-65289441D01*
X133241366Y-65753899D02*
X133163957Y-65792603D01*
X133163957Y-65792603D02*
X132970433Y-65792603D01*
X132970433Y-65792603D02*
X132893023Y-65753899D01*
X132893023Y-65753899D02*
X132854319Y-65676489D01*
X132854319Y-65676489D02*
X132854319Y-65599079D01*
X132854319Y-65599079D02*
X132893023Y-65521670D01*
X132893023Y-65521670D02*
X132970433Y-65482965D01*
X132970433Y-65482965D02*
X133163957Y-65482965D01*
X133163957Y-65482965D02*
X133241366Y-65444260D01*
X133628413Y-65250737D02*
X133628413Y-65792603D01*
X133628413Y-65328146D02*
X133667118Y-65289441D01*
X133667118Y-65289441D02*
X133744528Y-65250737D01*
X133744528Y-65250737D02*
X133860642Y-65250737D01*
X133860642Y-65250737D02*
X133938051Y-65289441D01*
X133938051Y-65289441D02*
X133976756Y-65366851D01*
X133976756Y-65366851D02*
X133976756Y-65792603D01*
X134479918Y-65792603D02*
X134402508Y-65753899D01*
X134402508Y-65753899D02*
X134363803Y-65715194D01*
X134363803Y-65715194D02*
X134325099Y-65637784D01*
X134325099Y-65637784D02*
X134325099Y-65405556D01*
X134325099Y-65405556D02*
X134363803Y-65328146D01*
X134363803Y-65328146D02*
X134402508Y-65289441D01*
X134402508Y-65289441D02*
X134479918Y-65250737D01*
X134479918Y-65250737D02*
X134596032Y-65250737D01*
X134596032Y-65250737D02*
X134673441Y-65289441D01*
X134673441Y-65289441D02*
X134712146Y-65328146D01*
X134712146Y-65328146D02*
X134750851Y-65405556D01*
X134750851Y-65405556D02*
X134750851Y-65637784D01*
X134750851Y-65637784D02*
X134712146Y-65715194D01*
X134712146Y-65715194D02*
X134673441Y-65753899D01*
X134673441Y-65753899D02*
X134596032Y-65792603D01*
X134596032Y-65792603D02*
X134479918Y-65792603D01*
D12*
X142359580Y-67746666D02*
X142407200Y-67794285D01*
X142407200Y-67794285D02*
X142454819Y-67937142D01*
X142454819Y-67937142D02*
X142454819Y-68032380D01*
X142454819Y-68032380D02*
X142407200Y-68175237D01*
X142407200Y-68175237D02*
X142311961Y-68270475D01*
X142311961Y-68270475D02*
X142216723Y-68318094D01*
X142216723Y-68318094D02*
X142026247Y-68365713D01*
X142026247Y-68365713D02*
X141883390Y-68365713D01*
X141883390Y-68365713D02*
X141692914Y-68318094D01*
X141692914Y-68318094D02*
X141597676Y-68270475D01*
X141597676Y-68270475D02*
X141502438Y-68175237D01*
X141502438Y-68175237D02*
X141454819Y-68032380D01*
X141454819Y-68032380D02*
X141454819Y-67937142D01*
X141454819Y-67937142D02*
X141502438Y-67794285D01*
X141502438Y-67794285D02*
X141550057Y-67746666D01*
X141550057Y-67365713D02*
X141502438Y-67318094D01*
X141502438Y-67318094D02*
X141454819Y-67222856D01*
X141454819Y-67222856D02*
X141454819Y-66984761D01*
X141454819Y-66984761D02*
X141502438Y-66889523D01*
X141502438Y-66889523D02*
X141550057Y-66841904D01*
X141550057Y-66841904D02*
X141645295Y-66794285D01*
X141645295Y-66794285D02*
X141740533Y-66794285D01*
X141740533Y-66794285D02*
X141883390Y-66841904D01*
X141883390Y-66841904D02*
X142454819Y-67413332D01*
X142454819Y-67413332D02*
X142454819Y-66794285D01*
X152374819Y-57556666D02*
X151898628Y-57889999D01*
X152374819Y-58128094D02*
X151374819Y-58128094D01*
X151374819Y-58128094D02*
X151374819Y-57747142D01*
X151374819Y-57747142D02*
X151422438Y-57651904D01*
X151422438Y-57651904D02*
X151470057Y-57604285D01*
X151470057Y-57604285D02*
X151565295Y-57556666D01*
X151565295Y-57556666D02*
X151708152Y-57556666D01*
X151708152Y-57556666D02*
X151803390Y-57604285D01*
X151803390Y-57604285D02*
X151851009Y-57651904D01*
X151851009Y-57651904D02*
X151898628Y-57747142D01*
X151898628Y-57747142D02*
X151898628Y-58128094D01*
X152374819Y-56604285D02*
X152374819Y-57175713D01*
X152374819Y-56889999D02*
X151374819Y-56889999D01*
X151374819Y-56889999D02*
X151517676Y-56985237D01*
X151517676Y-56985237D02*
X151612914Y-57080475D01*
X151612914Y-57080475D02*
X151660533Y-57175713D01*
X142359580Y-80746666D02*
X142407200Y-80794285D01*
X142407200Y-80794285D02*
X142454819Y-80937142D01*
X142454819Y-80937142D02*
X142454819Y-81032380D01*
X142454819Y-81032380D02*
X142407200Y-81175237D01*
X142407200Y-81175237D02*
X142311961Y-81270475D01*
X142311961Y-81270475D02*
X142216723Y-81318094D01*
X142216723Y-81318094D02*
X142026247Y-81365713D01*
X142026247Y-81365713D02*
X141883390Y-81365713D01*
X141883390Y-81365713D02*
X141692914Y-81318094D01*
X141692914Y-81318094D02*
X141597676Y-81270475D01*
X141597676Y-81270475D02*
X141502438Y-81175237D01*
X141502438Y-81175237D02*
X141454819Y-81032380D01*
X141454819Y-81032380D02*
X141454819Y-80937142D01*
X141454819Y-80937142D02*
X141502438Y-80794285D01*
X141502438Y-80794285D02*
X141550057Y-80746666D01*
X141454819Y-80413332D02*
X141454819Y-79794285D01*
X141454819Y-79794285D02*
X141835771Y-80127618D01*
X141835771Y-80127618D02*
X141835771Y-79984761D01*
X141835771Y-79984761D02*
X141883390Y-79889523D01*
X141883390Y-79889523D02*
X141931009Y-79841904D01*
X141931009Y-79841904D02*
X142026247Y-79794285D01*
X142026247Y-79794285D02*
X142264342Y-79794285D01*
X142264342Y-79794285D02*
X142359580Y-79841904D01*
X142359580Y-79841904D02*
X142407200Y-79889523D01*
X142407200Y-79889523D02*
X142454819Y-79984761D01*
X142454819Y-79984761D02*
X142454819Y-80270475D01*
X142454819Y-80270475D02*
X142407200Y-80365713D01*
X142407200Y-80365713D02*
X142359580Y-80413332D01*
X147523333Y-47454819D02*
X147190000Y-46978628D01*
X146951905Y-47454819D02*
X146951905Y-46454819D01*
X146951905Y-46454819D02*
X147332857Y-46454819D01*
X147332857Y-46454819D02*
X147428095Y-46502438D01*
X147428095Y-46502438D02*
X147475714Y-46550057D01*
X147475714Y-46550057D02*
X147523333Y-46645295D01*
X147523333Y-46645295D02*
X147523333Y-46788152D01*
X147523333Y-46788152D02*
X147475714Y-46883390D01*
X147475714Y-46883390D02*
X147428095Y-46931009D01*
X147428095Y-46931009D02*
X147332857Y-46978628D01*
X147332857Y-46978628D02*
X146951905Y-46978628D01*
X148380476Y-46788152D02*
X148380476Y-47454819D01*
X148142381Y-46407200D02*
X147904286Y-47121485D01*
X147904286Y-47121485D02*
X148523333Y-47121485D01*
X151874819Y-69246666D02*
X151398628Y-69579999D01*
X151874819Y-69818094D02*
X150874819Y-69818094D01*
X150874819Y-69818094D02*
X150874819Y-69437142D01*
X150874819Y-69437142D02*
X150922438Y-69341904D01*
X150922438Y-69341904D02*
X150970057Y-69294285D01*
X150970057Y-69294285D02*
X151065295Y-69246666D01*
X151065295Y-69246666D02*
X151208152Y-69246666D01*
X151208152Y-69246666D02*
X151303390Y-69294285D01*
X151303390Y-69294285D02*
X151351009Y-69341904D01*
X151351009Y-69341904D02*
X151398628Y-69437142D01*
X151398628Y-69437142D02*
X151398628Y-69818094D01*
X150970057Y-68865713D02*
X150922438Y-68818094D01*
X150922438Y-68818094D02*
X150874819Y-68722856D01*
X150874819Y-68722856D02*
X150874819Y-68484761D01*
X150874819Y-68484761D02*
X150922438Y-68389523D01*
X150922438Y-68389523D02*
X150970057Y-68341904D01*
X150970057Y-68341904D02*
X151065295Y-68294285D01*
X151065295Y-68294285D02*
X151160533Y-68294285D01*
X151160533Y-68294285D02*
X151303390Y-68341904D01*
X151303390Y-68341904D02*
X151874819Y-68913332D01*
X151874819Y-68913332D02*
X151874819Y-68294285D01*
X129775714Y-88879104D02*
X130251904Y-88879104D01*
X129680476Y-89164819D02*
X130013809Y-88164819D01*
X130013809Y-88164819D02*
X130347142Y-89164819D01*
X131204285Y-89164819D02*
X130632857Y-89164819D01*
X130918571Y-89164819D02*
X130918571Y-88164819D01*
X130918571Y-88164819D02*
X130823333Y-88307676D01*
X130823333Y-88307676D02*
X130728095Y-88402914D01*
X130728095Y-88402914D02*
X130632857Y-88450533D01*
X131751904Y-48615180D02*
X131751904Y-47805657D01*
X131751904Y-47805657D02*
X131704285Y-47710419D01*
X131704285Y-47710419D02*
X131656666Y-47662800D01*
X131656666Y-47662800D02*
X131561428Y-47615180D01*
X131561428Y-47615180D02*
X131370952Y-47615180D01*
X131370952Y-47615180D02*
X131275714Y-47662800D01*
X131275714Y-47662800D02*
X131228095Y-47710419D01*
X131228095Y-47710419D02*
X131180476Y-47805657D01*
X131180476Y-47805657D02*
X131180476Y-48615180D01*
X130751904Y-47662800D02*
X130609047Y-47615180D01*
X130609047Y-47615180D02*
X130370952Y-47615180D01*
X130370952Y-47615180D02*
X130275714Y-47662800D01*
X130275714Y-47662800D02*
X130228095Y-47710419D01*
X130228095Y-47710419D02*
X130180476Y-47805657D01*
X130180476Y-47805657D02*
X130180476Y-47900895D01*
X130180476Y-47900895D02*
X130228095Y-47996133D01*
X130228095Y-47996133D02*
X130275714Y-48043752D01*
X130275714Y-48043752D02*
X130370952Y-48091371D01*
X130370952Y-48091371D02*
X130561428Y-48138990D01*
X130561428Y-48138990D02*
X130656666Y-48186609D01*
X130656666Y-48186609D02*
X130704285Y-48234228D01*
X130704285Y-48234228D02*
X130751904Y-48329466D01*
X130751904Y-48329466D02*
X130751904Y-48424704D01*
X130751904Y-48424704D02*
X130704285Y-48519942D01*
X130704285Y-48519942D02*
X130656666Y-48567561D01*
X130656666Y-48567561D02*
X130561428Y-48615180D01*
X130561428Y-48615180D02*
X130323333Y-48615180D01*
X130323333Y-48615180D02*
X130180476Y-48567561D01*
X129418571Y-48138990D02*
X129275714Y-48091371D01*
X129275714Y-48091371D02*
X129228095Y-48043752D01*
X129228095Y-48043752D02*
X129180476Y-47948514D01*
X129180476Y-47948514D02*
X129180476Y-47805657D01*
X129180476Y-47805657D02*
X129228095Y-47710419D01*
X129228095Y-47710419D02*
X129275714Y-47662800D01*
X129275714Y-47662800D02*
X129370952Y-47615180D01*
X129370952Y-47615180D02*
X129751904Y-47615180D01*
X129751904Y-47615180D02*
X129751904Y-48615180D01*
X129751904Y-48615180D02*
X129418571Y-48615180D01*
X129418571Y-48615180D02*
X129323333Y-48567561D01*
X129323333Y-48567561D02*
X129275714Y-48519942D01*
X129275714Y-48519942D02*
X129228095Y-48424704D01*
X129228095Y-48424704D02*
X129228095Y-48329466D01*
X129228095Y-48329466D02*
X129275714Y-48234228D01*
X129275714Y-48234228D02*
X129323333Y-48186609D01*
X129323333Y-48186609D02*
X129418571Y-48138990D01*
X129418571Y-48138990D02*
X129751904Y-48138990D01*
D13*
X117938095Y-69957419D02*
X117938095Y-70766942D01*
X117938095Y-70766942D02*
X117985714Y-70862180D01*
X117985714Y-70862180D02*
X118033333Y-70909800D01*
X118033333Y-70909800D02*
X118128571Y-70957419D01*
X118128571Y-70957419D02*
X118319047Y-70957419D01*
X118319047Y-70957419D02*
X118414285Y-70909800D01*
X118414285Y-70909800D02*
X118461904Y-70862180D01*
X118461904Y-70862180D02*
X118509523Y-70766942D01*
X118509523Y-70766942D02*
X118509523Y-69957419D01*
X118938095Y-70052657D02*
X118985714Y-70005038D01*
X118985714Y-70005038D02*
X119080952Y-69957419D01*
X119080952Y-69957419D02*
X119319047Y-69957419D01*
X119319047Y-69957419D02*
X119414285Y-70005038D01*
X119414285Y-70005038D02*
X119461904Y-70052657D01*
X119461904Y-70052657D02*
X119509523Y-70147895D01*
X119509523Y-70147895D02*
X119509523Y-70243133D01*
X119509523Y-70243133D02*
X119461904Y-70385990D01*
X119461904Y-70385990D02*
X118890476Y-70957419D01*
X118890476Y-70957419D02*
X119509523Y-70957419D01*
D12*
X107252600Y-46959639D02*
X107300219Y-46816782D01*
X107300219Y-46816782D02*
X107300219Y-46578687D01*
X107300219Y-46578687D02*
X107252600Y-46483449D01*
X107252600Y-46483449D02*
X107204980Y-46435830D01*
X107204980Y-46435830D02*
X107109742Y-46388211D01*
X107109742Y-46388211D02*
X107014504Y-46388211D01*
X107014504Y-46388211D02*
X106919266Y-46435830D01*
X106919266Y-46435830D02*
X106871647Y-46483449D01*
X106871647Y-46483449D02*
X106824028Y-46578687D01*
X106824028Y-46578687D02*
X106776409Y-46769163D01*
X106776409Y-46769163D02*
X106728790Y-46864401D01*
X106728790Y-46864401D02*
X106681171Y-46912020D01*
X106681171Y-46912020D02*
X106585933Y-46959639D01*
X106585933Y-46959639D02*
X106490695Y-46959639D01*
X106490695Y-46959639D02*
X106395457Y-46912020D01*
X106395457Y-46912020D02*
X106347838Y-46864401D01*
X106347838Y-46864401D02*
X106300219Y-46769163D01*
X106300219Y-46769163D02*
X106300219Y-46531068D01*
X106300219Y-46531068D02*
X106347838Y-46388211D01*
X107204980Y-45388211D02*
X107252600Y-45435830D01*
X107252600Y-45435830D02*
X107300219Y-45578687D01*
X107300219Y-45578687D02*
X107300219Y-45673925D01*
X107300219Y-45673925D02*
X107252600Y-45816782D01*
X107252600Y-45816782D02*
X107157361Y-45912020D01*
X107157361Y-45912020D02*
X107062123Y-45959639D01*
X107062123Y-45959639D02*
X106871647Y-46007258D01*
X106871647Y-46007258D02*
X106728790Y-46007258D01*
X106728790Y-46007258D02*
X106538314Y-45959639D01*
X106538314Y-45959639D02*
X106443076Y-45912020D01*
X106443076Y-45912020D02*
X106347838Y-45816782D01*
X106347838Y-45816782D02*
X106300219Y-45673925D01*
X106300219Y-45673925D02*
X106300219Y-45578687D01*
X106300219Y-45578687D02*
X106347838Y-45435830D01*
X106347838Y-45435830D02*
X106395457Y-45388211D01*
X107300219Y-44483449D02*
X107300219Y-44959639D01*
X107300219Y-44959639D02*
X106300219Y-44959639D01*
X109741800Y-46959639D02*
X109789419Y-46816782D01*
X109789419Y-46816782D02*
X109789419Y-46578687D01*
X109789419Y-46578687D02*
X109741800Y-46483449D01*
X109741800Y-46483449D02*
X109694180Y-46435830D01*
X109694180Y-46435830D02*
X109598942Y-46388211D01*
X109598942Y-46388211D02*
X109503704Y-46388211D01*
X109503704Y-46388211D02*
X109408466Y-46435830D01*
X109408466Y-46435830D02*
X109360847Y-46483449D01*
X109360847Y-46483449D02*
X109313228Y-46578687D01*
X109313228Y-46578687D02*
X109265609Y-46769163D01*
X109265609Y-46769163D02*
X109217990Y-46864401D01*
X109217990Y-46864401D02*
X109170371Y-46912020D01*
X109170371Y-46912020D02*
X109075133Y-46959639D01*
X109075133Y-46959639D02*
X108979895Y-46959639D01*
X108979895Y-46959639D02*
X108884657Y-46912020D01*
X108884657Y-46912020D02*
X108837038Y-46864401D01*
X108837038Y-46864401D02*
X108789419Y-46769163D01*
X108789419Y-46769163D02*
X108789419Y-46531068D01*
X108789419Y-46531068D02*
X108837038Y-46388211D01*
X109789419Y-45959639D02*
X108789419Y-45959639D01*
X108789419Y-45959639D02*
X108789419Y-45721544D01*
X108789419Y-45721544D02*
X108837038Y-45578687D01*
X108837038Y-45578687D02*
X108932276Y-45483449D01*
X108932276Y-45483449D02*
X109027514Y-45435830D01*
X109027514Y-45435830D02*
X109217990Y-45388211D01*
X109217990Y-45388211D02*
X109360847Y-45388211D01*
X109360847Y-45388211D02*
X109551323Y-45435830D01*
X109551323Y-45435830D02*
X109646561Y-45483449D01*
X109646561Y-45483449D02*
X109741800Y-45578687D01*
X109741800Y-45578687D02*
X109789419Y-45721544D01*
X109789419Y-45721544D02*
X109789419Y-45959639D01*
X109503704Y-45007258D02*
X109503704Y-44531068D01*
X109789419Y-45102496D02*
X108789419Y-44769163D01*
X108789419Y-44769163D02*
X109789419Y-44435830D01*
X101115438Y-46337411D02*
X101067819Y-46432649D01*
X101067819Y-46432649D02*
X101067819Y-46575506D01*
X101067819Y-46575506D02*
X101115438Y-46718363D01*
X101115438Y-46718363D02*
X101210676Y-46813601D01*
X101210676Y-46813601D02*
X101305914Y-46861220D01*
X101305914Y-46861220D02*
X101496390Y-46908839D01*
X101496390Y-46908839D02*
X101639247Y-46908839D01*
X101639247Y-46908839D02*
X101829723Y-46861220D01*
X101829723Y-46861220D02*
X101924961Y-46813601D01*
X101924961Y-46813601D02*
X102020200Y-46718363D01*
X102020200Y-46718363D02*
X102067819Y-46575506D01*
X102067819Y-46575506D02*
X102067819Y-46480268D01*
X102067819Y-46480268D02*
X102020200Y-46337411D01*
X102020200Y-46337411D02*
X101972580Y-46289792D01*
X101972580Y-46289792D02*
X101639247Y-46289792D01*
X101639247Y-46289792D02*
X101639247Y-46480268D01*
X102067819Y-45861220D02*
X101067819Y-45861220D01*
X101067819Y-45861220D02*
X102067819Y-45289792D01*
X102067819Y-45289792D02*
X101067819Y-45289792D01*
X102067819Y-44813601D02*
X101067819Y-44813601D01*
X101067819Y-44813601D02*
X101067819Y-44575506D01*
X101067819Y-44575506D02*
X101115438Y-44432649D01*
X101115438Y-44432649D02*
X101210676Y-44337411D01*
X101210676Y-44337411D02*
X101305914Y-44289792D01*
X101305914Y-44289792D02*
X101496390Y-44242173D01*
X101496390Y-44242173D02*
X101639247Y-44242173D01*
X101639247Y-44242173D02*
X101829723Y-44289792D01*
X101829723Y-44289792D02*
X101924961Y-44337411D01*
X101924961Y-44337411D02*
X102020200Y-44432649D01*
X102020200Y-44432649D02*
X102067819Y-44575506D01*
X102067819Y-44575506D02*
X102067819Y-44813601D01*
X103709419Y-46902477D02*
X104709419Y-46569144D01*
X104709419Y-46569144D02*
X103709419Y-46235811D01*
X104614180Y-45331049D02*
X104661800Y-45378668D01*
X104661800Y-45378668D02*
X104709419Y-45521525D01*
X104709419Y-45521525D02*
X104709419Y-45616763D01*
X104709419Y-45616763D02*
X104661800Y-45759620D01*
X104661800Y-45759620D02*
X104566561Y-45854858D01*
X104566561Y-45854858D02*
X104471323Y-45902477D01*
X104471323Y-45902477D02*
X104280847Y-45950096D01*
X104280847Y-45950096D02*
X104137990Y-45950096D01*
X104137990Y-45950096D02*
X103947514Y-45902477D01*
X103947514Y-45902477D02*
X103852276Y-45854858D01*
X103852276Y-45854858D02*
X103757038Y-45759620D01*
X103757038Y-45759620D02*
X103709419Y-45616763D01*
X103709419Y-45616763D02*
X103709419Y-45521525D01*
X103709419Y-45521525D02*
X103757038Y-45378668D01*
X103757038Y-45378668D02*
X103804657Y-45331049D01*
X104614180Y-44331049D02*
X104661800Y-44378668D01*
X104661800Y-44378668D02*
X104709419Y-44521525D01*
X104709419Y-44521525D02*
X104709419Y-44616763D01*
X104709419Y-44616763D02*
X104661800Y-44759620D01*
X104661800Y-44759620D02*
X104566561Y-44854858D01*
X104566561Y-44854858D02*
X104471323Y-44902477D01*
X104471323Y-44902477D02*
X104280847Y-44950096D01*
X104280847Y-44950096D02*
X104137990Y-44950096D01*
X104137990Y-44950096D02*
X103947514Y-44902477D01*
X103947514Y-44902477D02*
X103852276Y-44854858D01*
X103852276Y-44854858D02*
X103757038Y-44759620D01*
X103757038Y-44759620D02*
X103709419Y-44616763D01*
X103709419Y-44616763D02*
X103709419Y-44521525D01*
X103709419Y-44521525D02*
X103757038Y-44378668D01*
X103757038Y-44378668D02*
X103804657Y-44331049D01*
X157964286Y-63034819D02*
X157964286Y-63844342D01*
X157964286Y-63844342D02*
X158011905Y-63939580D01*
X158011905Y-63939580D02*
X158059524Y-63987200D01*
X158059524Y-63987200D02*
X158154762Y-64034819D01*
X158154762Y-64034819D02*
X158345238Y-64034819D01*
X158345238Y-64034819D02*
X158440476Y-63987200D01*
X158440476Y-63987200D02*
X158488095Y-63939580D01*
X158488095Y-63939580D02*
X158535714Y-63844342D01*
X158535714Y-63844342D02*
X158535714Y-63034819D01*
X159011905Y-64034819D02*
X159011905Y-63034819D01*
X159011905Y-63034819D02*
X159392857Y-63034819D01*
X159392857Y-63034819D02*
X159488095Y-63082438D01*
X159488095Y-63082438D02*
X159535714Y-63130057D01*
X159535714Y-63130057D02*
X159583333Y-63225295D01*
X159583333Y-63225295D02*
X159583333Y-63368152D01*
X159583333Y-63368152D02*
X159535714Y-63463390D01*
X159535714Y-63463390D02*
X159488095Y-63511009D01*
X159488095Y-63511009D02*
X159392857Y-63558628D01*
X159392857Y-63558628D02*
X159011905Y-63558628D01*
D13*
X104138095Y-85957419D02*
X104138095Y-86766942D01*
X104138095Y-86766942D02*
X104185714Y-86862180D01*
X104185714Y-86862180D02*
X104233333Y-86909800D01*
X104233333Y-86909800D02*
X104328571Y-86957419D01*
X104328571Y-86957419D02*
X104519047Y-86957419D01*
X104519047Y-86957419D02*
X104614285Y-86909800D01*
X104614285Y-86909800D02*
X104661904Y-86862180D01*
X104661904Y-86862180D02*
X104709523Y-86766942D01*
X104709523Y-86766942D02*
X104709523Y-85957419D01*
X105709523Y-86957419D02*
X105138095Y-86957419D01*
X105423809Y-86957419D02*
X105423809Y-85957419D01*
X105423809Y-85957419D02*
X105328571Y-86100276D01*
X105328571Y-86100276D02*
X105233333Y-86195514D01*
X105233333Y-86195514D02*
X105138095Y-86243133D01*
D12*
X98822200Y-77647839D02*
X98869819Y-77504982D01*
X98869819Y-77504982D02*
X98869819Y-77266887D01*
X98869819Y-77266887D02*
X98822200Y-77171649D01*
X98822200Y-77171649D02*
X98774580Y-77124030D01*
X98774580Y-77124030D02*
X98679342Y-77076411D01*
X98679342Y-77076411D02*
X98584104Y-77076411D01*
X98584104Y-77076411D02*
X98488866Y-77124030D01*
X98488866Y-77124030D02*
X98441247Y-77171649D01*
X98441247Y-77171649D02*
X98393628Y-77266887D01*
X98393628Y-77266887D02*
X98346009Y-77457363D01*
X98346009Y-77457363D02*
X98298390Y-77552601D01*
X98298390Y-77552601D02*
X98250771Y-77600220D01*
X98250771Y-77600220D02*
X98155533Y-77647839D01*
X98155533Y-77647839D02*
X98060295Y-77647839D01*
X98060295Y-77647839D02*
X97965057Y-77600220D01*
X97965057Y-77600220D02*
X97917438Y-77552601D01*
X97917438Y-77552601D02*
X97869819Y-77457363D01*
X97869819Y-77457363D02*
X97869819Y-77219268D01*
X97869819Y-77219268D02*
X97917438Y-77076411D01*
X98774580Y-76076411D02*
X98822200Y-76124030D01*
X98822200Y-76124030D02*
X98869819Y-76266887D01*
X98869819Y-76266887D02*
X98869819Y-76362125D01*
X98869819Y-76362125D02*
X98822200Y-76504982D01*
X98822200Y-76504982D02*
X98726961Y-76600220D01*
X98726961Y-76600220D02*
X98631723Y-76647839D01*
X98631723Y-76647839D02*
X98441247Y-76695458D01*
X98441247Y-76695458D02*
X98298390Y-76695458D01*
X98298390Y-76695458D02*
X98107914Y-76647839D01*
X98107914Y-76647839D02*
X98012676Y-76600220D01*
X98012676Y-76600220D02*
X97917438Y-76504982D01*
X97917438Y-76504982D02*
X97869819Y-76362125D01*
X97869819Y-76362125D02*
X97869819Y-76266887D01*
X97869819Y-76266887D02*
X97917438Y-76124030D01*
X97917438Y-76124030D02*
X97965057Y-76076411D01*
X98869819Y-75171649D02*
X98869819Y-75647839D01*
X98869819Y-75647839D02*
X97869819Y-75647839D01*
X100592438Y-77076411D02*
X100544819Y-77171649D01*
X100544819Y-77171649D02*
X100544819Y-77314506D01*
X100544819Y-77314506D02*
X100592438Y-77457363D01*
X100592438Y-77457363D02*
X100687676Y-77552601D01*
X100687676Y-77552601D02*
X100782914Y-77600220D01*
X100782914Y-77600220D02*
X100973390Y-77647839D01*
X100973390Y-77647839D02*
X101116247Y-77647839D01*
X101116247Y-77647839D02*
X101306723Y-77600220D01*
X101306723Y-77600220D02*
X101401961Y-77552601D01*
X101401961Y-77552601D02*
X101497200Y-77457363D01*
X101497200Y-77457363D02*
X101544819Y-77314506D01*
X101544819Y-77314506D02*
X101544819Y-77219268D01*
X101544819Y-77219268D02*
X101497200Y-77076411D01*
X101497200Y-77076411D02*
X101449580Y-77028792D01*
X101449580Y-77028792D02*
X101116247Y-77028792D01*
X101116247Y-77028792D02*
X101116247Y-77219268D01*
X101544819Y-76600220D02*
X100544819Y-76600220D01*
X100544819Y-76600220D02*
X101544819Y-76028792D01*
X101544819Y-76028792D02*
X100544819Y-76028792D01*
X101544819Y-75552601D02*
X100544819Y-75552601D01*
X100544819Y-75552601D02*
X100544819Y-75314506D01*
X100544819Y-75314506D02*
X100592438Y-75171649D01*
X100592438Y-75171649D02*
X100687676Y-75076411D01*
X100687676Y-75076411D02*
X100782914Y-75028792D01*
X100782914Y-75028792D02*
X100973390Y-74981173D01*
X100973390Y-74981173D02*
X101116247Y-74981173D01*
X101116247Y-74981173D02*
X101306723Y-75028792D01*
X101306723Y-75028792D02*
X101401961Y-75076411D01*
X101401961Y-75076411D02*
X101497200Y-75171649D01*
X101497200Y-75171649D02*
X101544819Y-75314506D01*
X101544819Y-75314506D02*
X101544819Y-75552601D01*
X103084819Y-77616077D02*
X104084819Y-77282744D01*
X104084819Y-77282744D02*
X103084819Y-76949411D01*
X103989580Y-76044649D02*
X104037200Y-76092268D01*
X104037200Y-76092268D02*
X104084819Y-76235125D01*
X104084819Y-76235125D02*
X104084819Y-76330363D01*
X104084819Y-76330363D02*
X104037200Y-76473220D01*
X104037200Y-76473220D02*
X103941961Y-76568458D01*
X103941961Y-76568458D02*
X103846723Y-76616077D01*
X103846723Y-76616077D02*
X103656247Y-76663696D01*
X103656247Y-76663696D02*
X103513390Y-76663696D01*
X103513390Y-76663696D02*
X103322914Y-76616077D01*
X103322914Y-76616077D02*
X103227676Y-76568458D01*
X103227676Y-76568458D02*
X103132438Y-76473220D01*
X103132438Y-76473220D02*
X103084819Y-76330363D01*
X103084819Y-76330363D02*
X103084819Y-76235125D01*
X103084819Y-76235125D02*
X103132438Y-76092268D01*
X103132438Y-76092268D02*
X103180057Y-76044649D01*
X103989580Y-75044649D02*
X104037200Y-75092268D01*
X104037200Y-75092268D02*
X104084819Y-75235125D01*
X104084819Y-75235125D02*
X104084819Y-75330363D01*
X104084819Y-75330363D02*
X104037200Y-75473220D01*
X104037200Y-75473220D02*
X103941961Y-75568458D01*
X103941961Y-75568458D02*
X103846723Y-75616077D01*
X103846723Y-75616077D02*
X103656247Y-75663696D01*
X103656247Y-75663696D02*
X103513390Y-75663696D01*
X103513390Y-75663696D02*
X103322914Y-75616077D01*
X103322914Y-75616077D02*
X103227676Y-75568458D01*
X103227676Y-75568458D02*
X103132438Y-75473220D01*
X103132438Y-75473220D02*
X103084819Y-75330363D01*
X103084819Y-75330363D02*
X103084819Y-75235125D01*
X103084819Y-75235125D02*
X103132438Y-75092268D01*
X103132438Y-75092268D02*
X103180057Y-75044649D01*
X96290200Y-77647839D02*
X96337819Y-77504982D01*
X96337819Y-77504982D02*
X96337819Y-77266887D01*
X96337819Y-77266887D02*
X96290200Y-77171649D01*
X96290200Y-77171649D02*
X96242580Y-77124030D01*
X96242580Y-77124030D02*
X96147342Y-77076411D01*
X96147342Y-77076411D02*
X96052104Y-77076411D01*
X96052104Y-77076411D02*
X95956866Y-77124030D01*
X95956866Y-77124030D02*
X95909247Y-77171649D01*
X95909247Y-77171649D02*
X95861628Y-77266887D01*
X95861628Y-77266887D02*
X95814009Y-77457363D01*
X95814009Y-77457363D02*
X95766390Y-77552601D01*
X95766390Y-77552601D02*
X95718771Y-77600220D01*
X95718771Y-77600220D02*
X95623533Y-77647839D01*
X95623533Y-77647839D02*
X95528295Y-77647839D01*
X95528295Y-77647839D02*
X95433057Y-77600220D01*
X95433057Y-77600220D02*
X95385438Y-77552601D01*
X95385438Y-77552601D02*
X95337819Y-77457363D01*
X95337819Y-77457363D02*
X95337819Y-77219268D01*
X95337819Y-77219268D02*
X95385438Y-77076411D01*
X96337819Y-76647839D02*
X95337819Y-76647839D01*
X95337819Y-76647839D02*
X95337819Y-76409744D01*
X95337819Y-76409744D02*
X95385438Y-76266887D01*
X95385438Y-76266887D02*
X95480676Y-76171649D01*
X95480676Y-76171649D02*
X95575914Y-76124030D01*
X95575914Y-76124030D02*
X95766390Y-76076411D01*
X95766390Y-76076411D02*
X95909247Y-76076411D01*
X95909247Y-76076411D02*
X96099723Y-76124030D01*
X96099723Y-76124030D02*
X96194961Y-76171649D01*
X96194961Y-76171649D02*
X96290200Y-76266887D01*
X96290200Y-76266887D02*
X96337819Y-76409744D01*
X96337819Y-76409744D02*
X96337819Y-76647839D01*
X96052104Y-75695458D02*
X96052104Y-75219268D01*
X96337819Y-75790696D02*
X95337819Y-75457363D01*
X95337819Y-75457363D02*
X96337819Y-75124030D01*
X93924819Y-77473220D02*
X92924819Y-77473220D01*
X93924819Y-76997030D02*
X92924819Y-76997030D01*
X92924819Y-76997030D02*
X93924819Y-76425602D01*
X93924819Y-76425602D02*
X92924819Y-76425602D01*
X92924819Y-76092268D02*
X92924819Y-75520840D01*
X93924819Y-75806554D02*
X92924819Y-75806554D01*
X142359580Y-56246666D02*
X142407200Y-56294285D01*
X142407200Y-56294285D02*
X142454819Y-56437142D01*
X142454819Y-56437142D02*
X142454819Y-56532380D01*
X142454819Y-56532380D02*
X142407200Y-56675237D01*
X142407200Y-56675237D02*
X142311961Y-56770475D01*
X142311961Y-56770475D02*
X142216723Y-56818094D01*
X142216723Y-56818094D02*
X142026247Y-56865713D01*
X142026247Y-56865713D02*
X141883390Y-56865713D01*
X141883390Y-56865713D02*
X141692914Y-56818094D01*
X141692914Y-56818094D02*
X141597676Y-56770475D01*
X141597676Y-56770475D02*
X141502438Y-56675237D01*
X141502438Y-56675237D02*
X141454819Y-56532380D01*
X141454819Y-56532380D02*
X141454819Y-56437142D01*
X141454819Y-56437142D02*
X141502438Y-56294285D01*
X141502438Y-56294285D02*
X141550057Y-56246666D01*
X142454819Y-55294285D02*
X142454819Y-55865713D01*
X142454819Y-55579999D02*
X141454819Y-55579999D01*
X141454819Y-55579999D02*
X141597676Y-55675237D01*
X141597676Y-55675237D02*
X141692914Y-55770475D01*
X141692914Y-55770475D02*
X141740533Y-55865713D01*
X156869048Y-77034819D02*
X156869048Y-76034819D01*
X156869048Y-76034819D02*
X157107143Y-76034819D01*
X157107143Y-76034819D02*
X157250000Y-76082438D01*
X157250000Y-76082438D02*
X157345238Y-76177676D01*
X157345238Y-76177676D02*
X157392857Y-76272914D01*
X157392857Y-76272914D02*
X157440476Y-76463390D01*
X157440476Y-76463390D02*
X157440476Y-76606247D01*
X157440476Y-76606247D02*
X157392857Y-76796723D01*
X157392857Y-76796723D02*
X157345238Y-76891961D01*
X157345238Y-76891961D02*
X157250000Y-76987200D01*
X157250000Y-76987200D02*
X157107143Y-77034819D01*
X157107143Y-77034819D02*
X156869048Y-77034819D01*
X158059524Y-76034819D02*
X158250000Y-76034819D01*
X158250000Y-76034819D02*
X158345238Y-76082438D01*
X158345238Y-76082438D02*
X158440476Y-76177676D01*
X158440476Y-76177676D02*
X158488095Y-76368152D01*
X158488095Y-76368152D02*
X158488095Y-76701485D01*
X158488095Y-76701485D02*
X158440476Y-76891961D01*
X158440476Y-76891961D02*
X158345238Y-76987200D01*
X158345238Y-76987200D02*
X158250000Y-77034819D01*
X158250000Y-77034819D02*
X158059524Y-77034819D01*
X158059524Y-77034819D02*
X157964286Y-76987200D01*
X157964286Y-76987200D02*
X157869048Y-76891961D01*
X157869048Y-76891961D02*
X157821429Y-76701485D01*
X157821429Y-76701485D02*
X157821429Y-76368152D01*
X157821429Y-76368152D02*
X157869048Y-76177676D01*
X157869048Y-76177676D02*
X157964286Y-76082438D01*
X157964286Y-76082438D02*
X158059524Y-76034819D01*
X158821429Y-76034819D02*
X159059524Y-77034819D01*
X159059524Y-77034819D02*
X159250000Y-76320533D01*
X159250000Y-76320533D02*
X159440476Y-77034819D01*
X159440476Y-77034819D02*
X159678572Y-76034819D01*
X160059524Y-77034819D02*
X160059524Y-76034819D01*
X160059524Y-76034819D02*
X160630952Y-77034819D01*
X160630952Y-77034819D02*
X160630952Y-76034819D01*
X155487143Y-50229104D02*
X155963333Y-50229104D01*
X155391905Y-50514819D02*
X155725238Y-49514819D01*
X155725238Y-49514819D02*
X156058571Y-50514819D01*
X156868095Y-50514819D02*
X156391905Y-50514819D01*
X156391905Y-50514819D02*
X156391905Y-49514819D01*
X157153810Y-50229104D02*
X157630000Y-50229104D01*
X157058572Y-50514819D02*
X157391905Y-49514819D01*
X157391905Y-49514819D02*
X157725238Y-50514819D01*
X158630000Y-50514819D02*
X158296667Y-50038628D01*
X158058572Y-50514819D02*
X158058572Y-49514819D01*
X158058572Y-49514819D02*
X158439524Y-49514819D01*
X158439524Y-49514819D02*
X158534762Y-49562438D01*
X158534762Y-49562438D02*
X158582381Y-49610057D01*
X158582381Y-49610057D02*
X158630000Y-49705295D01*
X158630000Y-49705295D02*
X158630000Y-49848152D01*
X158630000Y-49848152D02*
X158582381Y-49943390D01*
X158582381Y-49943390D02*
X158534762Y-49991009D01*
X158534762Y-49991009D02*
X158439524Y-50038628D01*
X158439524Y-50038628D02*
X158058572Y-50038628D01*
X159058572Y-50514819D02*
X159058572Y-49514819D01*
X159058572Y-49514819D02*
X159391905Y-50229104D01*
X159391905Y-50229104D02*
X159725238Y-49514819D01*
X159725238Y-49514819D02*
X159725238Y-50514819D01*
X151874819Y-82246666D02*
X151398628Y-82579999D01*
X151874819Y-82818094D02*
X150874819Y-82818094D01*
X150874819Y-82818094D02*
X150874819Y-82437142D01*
X150874819Y-82437142D02*
X150922438Y-82341904D01*
X150922438Y-82341904D02*
X150970057Y-82294285D01*
X150970057Y-82294285D02*
X151065295Y-82246666D01*
X151065295Y-82246666D02*
X151208152Y-82246666D01*
X151208152Y-82246666D02*
X151303390Y-82294285D01*
X151303390Y-82294285D02*
X151351009Y-82341904D01*
X151351009Y-82341904D02*
X151398628Y-82437142D01*
X151398628Y-82437142D02*
X151398628Y-82818094D01*
X150874819Y-81913332D02*
X150874819Y-81294285D01*
X150874819Y-81294285D02*
X151255771Y-81627618D01*
X151255771Y-81627618D02*
X151255771Y-81484761D01*
X151255771Y-81484761D02*
X151303390Y-81389523D01*
X151303390Y-81389523D02*
X151351009Y-81341904D01*
X151351009Y-81341904D02*
X151446247Y-81294285D01*
X151446247Y-81294285D02*
X151684342Y-81294285D01*
X151684342Y-81294285D02*
X151779580Y-81341904D01*
X151779580Y-81341904D02*
X151827200Y-81389523D01*
X151827200Y-81389523D02*
X151874819Y-81484761D01*
X151874819Y-81484761D02*
X151874819Y-81770475D01*
X151874819Y-81770475D02*
X151827200Y-81865713D01*
X151827200Y-81865713D02*
X151779580Y-81913332D01*
X156966667Y-52354819D02*
X156966667Y-51354819D01*
X156966667Y-51354819D02*
X157300000Y-52069104D01*
X157300000Y-52069104D02*
X157633333Y-51354819D01*
X157633333Y-51354819D02*
X157633333Y-52354819D01*
X158109524Y-51831009D02*
X158442857Y-51831009D01*
X158585714Y-52354819D02*
X158109524Y-52354819D01*
X158109524Y-52354819D02*
X158109524Y-51354819D01*
X158109524Y-51354819D02*
X158585714Y-51354819D01*
X159014286Y-52354819D02*
X159014286Y-51354819D01*
X159014286Y-51354819D02*
X159585714Y-52354819D01*
X159585714Y-52354819D02*
X159585714Y-51354819D01*
X160061905Y-51354819D02*
X160061905Y-52164342D01*
X160061905Y-52164342D02*
X160109524Y-52259580D01*
X160109524Y-52259580D02*
X160157143Y-52307200D01*
X160157143Y-52307200D02*
X160252381Y-52354819D01*
X160252381Y-52354819D02*
X160442857Y-52354819D01*
X160442857Y-52354819D02*
X160538095Y-52307200D01*
X160538095Y-52307200D02*
X160585714Y-52259580D01*
X160585714Y-52259580D02*
X160633333Y-52164342D01*
X160633333Y-52164342D02*
X160633333Y-51354819D01*
D14*
G36*
X111104621Y-72384676D02*
G01*
X111113146Y-72419011D01*
X111119364Y-72485206D01*
X111123554Y-72588336D01*
X111125993Y-72733475D01*
X111126959Y-72925698D01*
X111127003Y-72988439D01*
X111127003Y-73610880D01*
X111774505Y-74779121D01*
X111901612Y-75008424D01*
X112020636Y-75223092D01*
X112129092Y-75418645D01*
X112224495Y-75590606D01*
X112304358Y-75734496D01*
X112366198Y-75845836D01*
X112407528Y-75920149D01*
X112425864Y-75952955D01*
X112426552Y-75954139D01*
X112452095Y-75947917D01*
X112523339Y-75927910D01*
X112634674Y-75895786D01*
X112780491Y-75853210D01*
X112955180Y-75801849D01*
X113153131Y-75743369D01*
X113368735Y-75679437D01*
X113596383Y-75611721D01*
X113830464Y-75541885D01*
X114065369Y-75471597D01*
X114295489Y-75402524D01*
X114515214Y-75336332D01*
X114718934Y-75274687D01*
X114901039Y-75219257D01*
X114932134Y-75209748D01*
X115187159Y-75131699D01*
X115304794Y-74636656D01*
X115349600Y-74449694D01*
X115384560Y-74309028D01*
X115411686Y-74208698D01*
X115432993Y-74142744D01*
X115450492Y-74105204D01*
X115466199Y-74090117D01*
X115482125Y-74091524D01*
X115487854Y-74094642D01*
X115491270Y-74126097D01*
X115481216Y-74204288D01*
X115458575Y-74324321D01*
X115424234Y-74481305D01*
X115396766Y-74597908D01*
X115360292Y-74751326D01*
X115329314Y-74885784D01*
X115305647Y-74993048D01*
X115291108Y-75064884D01*
X115287512Y-75093058D01*
X115287557Y-75093113D01*
X115314177Y-75087563D01*
X115386337Y-75068155D01*
X115498288Y-75036549D01*
X115644279Y-74994404D01*
X115818561Y-74943381D01*
X116015385Y-74885140D01*
X116228999Y-74821341D01*
X116231767Y-74820511D01*
X116495398Y-74741941D01*
X116711780Y-74678768D01*
X116884713Y-74630106D01*
X117018002Y-74595072D01*
X117115449Y-74572781D01*
X117180858Y-74562349D01*
X117218030Y-74562892D01*
X117230769Y-74573524D01*
X117225491Y-74589411D01*
X117197560Y-74601803D01*
X117123898Y-74627513D01*
X117010183Y-74664745D01*
X116862094Y-74711702D01*
X116685310Y-74766587D01*
X116485510Y-74827603D01*
X116268372Y-74892952D01*
X116231822Y-74903863D01*
X115251922Y-75196034D01*
X115227883Y-75290369D01*
X115182436Y-75470572D01*
X115130306Y-75680484D01*
X115072610Y-75915373D01*
X115010465Y-76170509D01*
X114944990Y-76441163D01*
X114877300Y-76722605D01*
X114808514Y-77010103D01*
X114739748Y-77298927D01*
X114672120Y-77584348D01*
X114606747Y-77861635D01*
X114544746Y-78126059D01*
X114487235Y-78372887D01*
X114435330Y-78597391D01*
X114390148Y-78794840D01*
X114352808Y-78960505D01*
X114324427Y-79089653D01*
X114306120Y-79177556D01*
X114299007Y-79219484D01*
X114299196Y-79222367D01*
X114334116Y-79233832D01*
X114407866Y-79245439D01*
X114505738Y-79254976D01*
X114525176Y-79256328D01*
X114641870Y-79268273D01*
X114705596Y-79283803D01*
X114716629Y-79300479D01*
X114675248Y-79315863D01*
X114581731Y-79327515D01*
X114516664Y-79331135D01*
X114315637Y-79338958D01*
X114382953Y-79471799D01*
X114419395Y-79549767D01*
X114429387Y-79591057D01*
X114414798Y-79604482D01*
X114411146Y-79604641D01*
X114375458Y-79583306D01*
X114329072Y-79529119D01*
X114305662Y-79493356D01*
X114239300Y-79382072D01*
X114212005Y-79486658D01*
X114187212Y-79582729D01*
X114163507Y-79676161D01*
X114161746Y-79683198D01*
X114138329Y-79744096D01*
X114109341Y-79782393D01*
X114084684Y-79789677D01*
X114074261Y-79757534D01*
X114074261Y-79757523D01*
X114079909Y-79713260D01*
X114094779Y-79633444D01*
X114115758Y-79534668D01*
X114117645Y-79526276D01*
X114137400Y-79432111D01*
X114149522Y-79360779D01*
X114151736Y-79325973D01*
X114151136Y-79324805D01*
X114123240Y-79321921D01*
X114046866Y-79317155D01*
X113927078Y-79310747D01*
X113768942Y-79302940D01*
X113577524Y-79293974D01*
X113357890Y-79284091D01*
X113115105Y-79273531D01*
X112854234Y-79262536D01*
X112774788Y-79259254D01*
X112503728Y-79247977D01*
X112244521Y-79236942D01*
X112002959Y-79226414D01*
X111784836Y-79216656D01*
X111595944Y-79207931D01*
X111442075Y-79200505D01*
X111329023Y-79194641D01*
X111262579Y-79190602D01*
X111255483Y-79190044D01*
X111102634Y-79177024D01*
X111094724Y-79357340D01*
X111084947Y-79466917D01*
X111069815Y-79523735D01*
X111052728Y-79527768D01*
X111037091Y-79478990D01*
X111026305Y-79377376D01*
X111025329Y-79357867D01*
X111017430Y-79178077D01*
X110799743Y-79170314D01*
X110670882Y-79161476D01*
X110594277Y-79146067D01*
X110570967Y-79129060D01*
X110579771Y-79111825D01*
X110624533Y-79101251D01*
X110712005Y-79096289D01*
X110786290Y-79095569D01*
X111012701Y-79095569D01*
X111016304Y-78859558D01*
X111099413Y-78859558D01*
X111099474Y-78980908D01*
X111100597Y-79062191D01*
X111102891Y-79097183D01*
X111103404Y-79098080D01*
X111133947Y-79100364D01*
X111211937Y-79104676D01*
X111331283Y-79110739D01*
X111485895Y-79118281D01*
X111669683Y-79127025D01*
X111876556Y-79136697D01*
X112100425Y-79147023D01*
X112335199Y-79157728D01*
X112574788Y-79168537D01*
X112813101Y-79179175D01*
X113044048Y-79189368D01*
X113261539Y-79198840D01*
X113459484Y-79207318D01*
X113631792Y-79214525D01*
X113772373Y-79220189D01*
X113875137Y-79224033D01*
X113933993Y-79225784D01*
X113934539Y-79225793D01*
X114156526Y-79229535D01*
X114124364Y-79169250D01*
X114095944Y-79116984D01*
X114045693Y-79025667D01*
X113976242Y-78900020D01*
X113890219Y-78744762D01*
X113790253Y-78564615D01*
X113678976Y-78364299D01*
X113559016Y-78148533D01*
X113433002Y-77922039D01*
X113303565Y-77689536D01*
X113173333Y-77455745D01*
X113044937Y-77225386D01*
X112921006Y-77003179D01*
X112804170Y-76793845D01*
X112697057Y-76602105D01*
X112602299Y-76432678D01*
X112522523Y-76290284D01*
X112460361Y-76179645D01*
X112418441Y-76105479D01*
X112399392Y-76072509D01*
X112398563Y-76071278D01*
X112370668Y-76075054D01*
X112300205Y-76092175D01*
X112195788Y-76120106D01*
X112066029Y-76156312D01*
X111919541Y-76198261D01*
X111764937Y-76243416D01*
X111610829Y-76289245D01*
X111465829Y-76333212D01*
X111338551Y-76372784D01*
X111237608Y-76405425D01*
X111171611Y-76428603D01*
X111149586Y-76438795D01*
X111146122Y-76467609D01*
X111142207Y-76543487D01*
X111137949Y-76660205D01*
X111133457Y-76811538D01*
X111128839Y-76991264D01*
X111124202Y-77193159D01*
X111119655Y-77410999D01*
X111115305Y-77638560D01*
X111111262Y-77869620D01*
X111107632Y-78097953D01*
X111104524Y-78317337D01*
X111102046Y-78521549D01*
X111100307Y-78704363D01*
X111099413Y-78859558D01*
X111016304Y-78859558D01*
X111032564Y-77794532D01*
X111036233Y-77535647D01*
X111039122Y-77293341D01*
X111041206Y-77072835D01*
X111042461Y-76879348D01*
X111042865Y-76718102D01*
X111042393Y-76594317D01*
X111041023Y-76513212D01*
X111038731Y-76480008D01*
X111038485Y-76479554D01*
X111010646Y-76483969D01*
X110937042Y-76502419D01*
X110823176Y-76533349D01*
X110674553Y-76575201D01*
X110496675Y-76626418D01*
X110295045Y-76685444D01*
X110075166Y-76750721D01*
X109991293Y-76775844D01*
X109764690Y-76843568D01*
X109553145Y-76906193D01*
X109362371Y-76962070D01*
X109198079Y-77009554D01*
X109065983Y-77046998D01*
X108971795Y-77072756D01*
X108921228Y-77085181D01*
X108914973Y-77086075D01*
X108883480Y-77069927D01*
X108882915Y-77052584D01*
X108910154Y-77038004D01*
X108983434Y-77010158D01*
X109097361Y-76970807D01*
X109246539Y-76921709D01*
X109425573Y-76864624D01*
X109629067Y-76801311D01*
X109851627Y-76733531D01*
X109970274Y-76697948D01*
X111046624Y-76376804D01*
X111046624Y-75056651D01*
X111046624Y-75003859D01*
X111046624Y-73777438D01*
X111127003Y-73777438D01*
X111127003Y-75056651D01*
X111127519Y-75392396D01*
X111129080Y-75675510D01*
X111131706Y-75906937D01*
X111135419Y-76087624D01*
X111140240Y-76218514D01*
X111146188Y-76300554D01*
X111153285Y-76334689D01*
X111155034Y-76335864D01*
X111187803Y-76328434D01*
X111264148Y-76307614D01*
X111376379Y-76275612D01*
X111516806Y-76234636D01*
X111677740Y-76186894D01*
X111762616Y-76161440D01*
X111929244Y-76111076D01*
X112077534Y-76065844D01*
X112141924Y-76045979D01*
X112493459Y-76045979D01*
X112506111Y-76075426D01*
X112542306Y-76146046D01*
X112599405Y-76253139D01*
X112674767Y-76392005D01*
X112765752Y-76557945D01*
X112869720Y-76746259D01*
X112984031Y-76952246D01*
X113106045Y-77171206D01*
X113233122Y-77398440D01*
X113362621Y-77629248D01*
X113491903Y-77858929D01*
X113618327Y-78082785D01*
X113739253Y-78296114D01*
X113852041Y-78494217D01*
X113954052Y-78672394D01*
X114042644Y-78825945D01*
X114115178Y-78950170D01*
X114169014Y-79040369D01*
X114201511Y-79091842D01*
X114210265Y-79102242D01*
X114219354Y-79073547D01*
X114239940Y-78996879D01*
X114270995Y-78876370D01*
X114311492Y-78716149D01*
X114360402Y-78520347D01*
X114416699Y-78293094D01*
X114479355Y-78038520D01*
X114547343Y-77760756D01*
X114619636Y-77463932D01*
X114690423Y-77171951D01*
X114765343Y-76861337D01*
X114836140Y-76566054D01*
X114901856Y-76290207D01*
X114961531Y-76037903D01*
X115014209Y-75813247D01*
X115058931Y-75620346D01*
X115094739Y-75463306D01*
X115120675Y-75346232D01*
X115135781Y-75273231D01*
X115139238Y-75248451D01*
X115111374Y-75252789D01*
X115038304Y-75271247D01*
X114925885Y-75302058D01*
X114779972Y-75343456D01*
X114606422Y-75393678D01*
X114411092Y-75450957D01*
X114199837Y-75513529D01*
X113978515Y-75579627D01*
X113752981Y-75647487D01*
X113529091Y-75715343D01*
X113312702Y-75781431D01*
X113109670Y-75843984D01*
X112925852Y-75901238D01*
X112767104Y-75951426D01*
X112639281Y-75992785D01*
X112548241Y-76023549D01*
X112499840Y-76041952D01*
X112493459Y-76045979D01*
X112141924Y-76045979D01*
X112200178Y-76028007D01*
X112289867Y-75999828D01*
X112339295Y-75983569D01*
X112346655Y-75980585D01*
X112334937Y-75956631D01*
X112299607Y-75890505D01*
X112243199Y-75786813D01*
X112168246Y-75650159D01*
X112077280Y-75485148D01*
X111972833Y-75296386D01*
X111857439Y-75088477D01*
X111739073Y-74875797D01*
X111127003Y-73777438D01*
X111046624Y-73777438D01*
X111046624Y-73630913D01*
X110832278Y-73246128D01*
X110760321Y-73115011D01*
X110698647Y-72998924D01*
X110651659Y-72906452D01*
X110623757Y-72846182D01*
X110617932Y-72828016D01*
X110628525Y-72798297D01*
X110660125Y-72817418D01*
X110712458Y-72885039D01*
X110785252Y-73000818D01*
X110859071Y-73129745D01*
X111033227Y-73442900D01*
X111046624Y-72915577D01*
X111052598Y-72719779D01*
X111059523Y-72572906D01*
X111067804Y-72470297D01*
X111077847Y-72407292D01*
X111090057Y-72379232D01*
X111093512Y-72377126D01*
X111104621Y-72384676D01*
G37*
D15*
X143130000Y-65110000D02*
X143460000Y-65110000D01*
X143130000Y-70050000D02*
X143130000Y-65110000D01*
X143130000Y-70050000D02*
X143460000Y-70050000D01*
X145540000Y-65110000D02*
X145870000Y-65110000D01*
X145540000Y-70050000D02*
X145870000Y-70050000D01*
X145870000Y-70050000D02*
X145870000Y-65110000D01*
X150000000Y-54520000D02*
X150000000Y-55470000D01*
X150000000Y-60260000D02*
X150000000Y-59310000D01*
X150920000Y-55470000D02*
X149080000Y-55470000D01*
X149080000Y-59310000D01*
X150920000Y-59310000D01*
X150920000Y-55470000D01*
X143130000Y-78110000D02*
X143460000Y-78110000D01*
X143130000Y-83050000D02*
X143130000Y-78110000D01*
X143130000Y-83050000D02*
X143460000Y-83050000D01*
X145540000Y-78110000D02*
X145870000Y-78110000D01*
X145540000Y-83050000D02*
X145870000Y-83050000D01*
X145870000Y-83050000D02*
X145870000Y-78110000D01*
X144820000Y-45080000D02*
X145770000Y-45080000D01*
X150560000Y-45080000D02*
X149610000Y-45080000D01*
X149610000Y-46000000D02*
X145770000Y-46000000D01*
X145770000Y-44160000D01*
X149610000Y-44160000D01*
X149610000Y-46000000D01*
X149500000Y-66210000D02*
X149500000Y-67160000D01*
X149500000Y-71950000D02*
X149500000Y-71000000D01*
X150420000Y-67160000D02*
X148580000Y-67160000D01*
X148580000Y-71000000D01*
X150420000Y-71000000D01*
X150420000Y-67160000D01*
X121470000Y-44130000D02*
X121470000Y-87570000D01*
X121470000Y-44130000D02*
X126550000Y-44130000D01*
X121470000Y-87570000D02*
X139510000Y-87570000D01*
X124140000Y-46800000D02*
X121470000Y-46800000D01*
X124140000Y-84900000D02*
X121470000Y-84900000D01*
X124140000Y-84900000D02*
X124140000Y-46800000D01*
X126550000Y-41590000D02*
X134430000Y-41590000D01*
X126550000Y-52010000D02*
X126550000Y-41590000D01*
X134430000Y-41590000D02*
X134430000Y-52010000D01*
X134430000Y-52010000D02*
X126550000Y-52010000D01*
X136840000Y-46800000D02*
X139510000Y-46800000D01*
X136840000Y-82360000D02*
X136840000Y-46800000D01*
X136840000Y-82360000D02*
X136840000Y-84900000D01*
X136840000Y-82360000D02*
X139510000Y-82360000D01*
X136840000Y-84900000D02*
X139510000Y-84900000D01*
X139510000Y-44130000D02*
X134430000Y-44130000D01*
X139510000Y-82360000D02*
X139510000Y-44130000D01*
X139510000Y-87570000D02*
X139510000Y-84900000D01*
D13*
X91500000Y-41580000D02*
X119500000Y-41580000D01*
X91500000Y-69580000D02*
X91500000Y-41580000D01*
X119500000Y-41580000D02*
X119500000Y-69580000D01*
X119500000Y-69580000D02*
X91500000Y-69580000D01*
D15*
X155250000Y-67080000D02*
X155250000Y-68580000D01*
X156500000Y-71080000D02*
X161000000Y-71080000D01*
X161000000Y-64580000D02*
X156500000Y-64580000D01*
X162250000Y-68580000D02*
X162250000Y-67080000D01*
D13*
X91500000Y-71540000D02*
X105500000Y-71540000D01*
X91500000Y-85540000D02*
X91500000Y-71540000D01*
X105500000Y-71540000D02*
X105500000Y-85540000D01*
X105500000Y-85540000D02*
X91500000Y-85540000D01*
D15*
X143130000Y-53610000D02*
X143460000Y-53610000D01*
X143130000Y-58550000D02*
X143130000Y-53610000D01*
X143130000Y-58550000D02*
X143460000Y-58550000D01*
X145540000Y-53610000D02*
X145870000Y-53610000D01*
X145540000Y-58550000D02*
X145870000Y-58550000D01*
X145870000Y-58550000D02*
X145870000Y-53610000D01*
X155250000Y-80080000D02*
X155250000Y-81580000D01*
X156500000Y-84080000D02*
X161000000Y-84080000D01*
X161000000Y-77580000D02*
X156500000Y-77580000D01*
X162250000Y-81580000D02*
X162250000Y-80080000D01*
X160190000Y-47645000D02*
X160190000Y-44555000D01*
X154640000Y-46100000D02*
G75*
G02*
X160190000Y-44555170I2990000J0D01*
G01*
X160190000Y-47644830D02*
G75*
G02*
X154640000Y-46100000I-2560000J1544830D01*
G01*
X160130000Y-46100000D02*
G75*
G02*
X155130000Y-46100000I-2500000J0D01*
G01*
X155130000Y-46100000D02*
G75*
G02*
X160130000Y-46100000I2500000J0D01*
G01*
X149500000Y-79210000D02*
X149500000Y-80160000D01*
X149500000Y-84950000D02*
X149500000Y-84000000D01*
X150420000Y-80160000D02*
X148580000Y-80160000D01*
X148580000Y-84000000D01*
X150420000Y-84000000D01*
X150420000Y-80160000D01*
X155250000Y-55580000D02*
X155250000Y-57080000D01*
X156500000Y-59580000D02*
X161000000Y-59580000D01*
X161000000Y-53080000D02*
X156500000Y-53080000D01*
X162250000Y-57080000D02*
X162250000Y-55580000D01*
M02*
